<svg version="1.2" xmlns="http://www.w3.org/2000/svg" viewBox="0 0 865 485" width="865" height="485">
	<defs>
		<clipPath clipPathUnits="userSpaceOnUse" id="cp1">
			<path d="m864.57 485h-864.57v-484.72h864.57z"/>
		</clipPath>
	</defs>
	<style>
		.s0 { fill: #999697 } 
	</style>
	<g id="Layer 1">
		<g id="&lt;Clip Group&gt;" clip-path="url(#cp1)">
			<path id="&lt;Compound Path&gt;" fill-rule="evenodd" class="s0" d="m27.88 0.26q1.93 0.07 3.86 0.14-0.15 0.23-0.3 0.45c-1.07 0.35-1.93 0.46-3.12 0.15q-0.22-0.37-0.44-0.74zm117.81 0q0.82 0.07 1.63 0.14-0.14 0.15-0.29 0.3-1.71 2.82-3.42 5.65c-2.77 4.73-4.5 10.58-5.79 16.64-5.08 23.66 8.58 47.8 20.65 57.49 4.01 3.22 8.09 7.52 13.37 9.36q0 0.22 0 0.45-0.08 0-0.15 0c-21.23-9.99-49.19-32.78-38.93-66.86 1.8-5.97 4.27-11.77 7.43-16.49q2.75-3.34 5.5-6.68zm-15.01 0q0.52 0 1.04 0 0 0.07 0 0.14c-0.99 2.72-3.28 10.2-5.2 11.74q-0.07 0-0.14 0 2.15-5.94 4.3-11.88zm24.82 0c8.68-0.17 14.52 3.27 18.12 8.17q-0.07 0.29-0.15 0.59c-6.12 0.68-11.8 4.6-19.31 2.82-3.65-0.86-8.38-4.02-5.2-8.32 1.58-2.13 4.21-1.83 6.54-3.26zm15.6 0q2.82 0 5.64 0-0.3 1.85-0.59 3.71c-3.01 0.07-4.35-1.59-5.05-3.71zm8.46 0q0.75 0 1.49 0-0.15 0.29-0.3 0.59-0.67 0.89-1.34 1.78-0.22 0-0.44 0 0.3-1.19 0.59-2.37zm2.38 0q2.3 0 4.61 0-1.79 2.74-3.57 5.49-0.3-0.07-0.59-0.15-0.23-2.67-0.45-5.34zm7.58 0q5.27 0.07 10.55 0.14-0.15 0.08-0.3 0.15c-2.14 1.63-11.66 6.72-14.71 6.84q-0.07-0.15-0.15-0.3c1.23-2.55 3.64-4.24 4.61-6.83zm55.56 0q8.02 0 16.05 0c-2.84 3.36-10.82 6.53-17.39 5.34-2.05-0.37-3.56-1.14-5.34-1.63q-0.08-0.15-0.15-0.3 0.07-0.15 0.15-0.29c2.38-0.1 5.78-1.47 6.68-3.12zm40.86 0c1.61-0.05 5.89-0.56 6.83 0.29q1.26 5.13 2.53 10.25-0.15 0.15-0.3 0.3c-5.74-1.85-9.23-2.95-9.06-10.84zm14.11 0q-0.52 14.48-1.04 28.97 0 4.53 0 9.06 0.15 7.06 0.3 14.11 0 6.76 0 13.52-0.08 3.87-0.15 7.73-0.74 6.91-1.49 13.81c-1.11 5.66-1.72 11.02-2.82 16.35-0.32 1.55-0.07 3.42-0.89 4.45q-0.07 0-0.15 0 0.6-9.88 1.19-19.76 0.22-7.5 0.45-15 0-15.15 0-30.31c0-15.12 1.04-29.49 2.37-42.93q1.12 0 2.23 0zm13.22 0c-0.36 7.99-6.04 13.48-9.65 18.57-1.11 1.56-1.89 3.61-3.42 4.75q-0.15-0.15-0.3-0.3 0.89-2.89 1.79-5.79c2.64-5.86 6.2-9.72 7.72-17.23q1.93 0 3.86 0zm5.06 0q8.39 0 16.78 0c-3.99 8.54-13.58 10.5-16.78 0zm43.97 0c-0.13 8.85 3.19 12.38 4.46 19.01q-0.15 0.08-0.3 0.15-0.22-0.15-0.44-0.3c-2.82-7.31-9.69-10.74-12.48-18.72q0-0.07 0-0.14 4.38 0 8.76 0zm10.85 0q3.93 0.07 7.87 0.14c-3.19 5.52-7.44 10.14-10.1 16.2-0.54 1.22-1.8 6.43-2.68 6.09q0.75-4.01 1.49-8.02c1.17-4.72 2.86-8.97 3.42-14.41zm53.18 0q4.91 0 9.81 0-0.07 0.14-0.15 0.29c-7.13 2.3-13.44 8.09-18.27 12.93-7.48 7.48-12.94 16.31-18.72 25.55-5.63 8.99-11.2 18.32-15.6 28.53-2.42 5.59-4.29 11.59-6.09 17.68-0.77 2.59-0.74 7.29-2.38 9.21 0.3-7.79 3.27-15.56 5.35-22.14 5.97-18.93 13.55-34.44 23.03-49.47 3.25-5.16 6.77-9.83 10.4-14.56 1.04-1.36 2.31-4.47 4.01-5.05q0 0.07 0 0.15-6.24 9.65-12.48 19.31c2.44-1.85 3.92-4.99 5.79-7.43q2.53-2.82 5.05-5.64 3.27-3.2 6.54-6.39 1.86-1.49 3.71-2.97zm-31.2 0q1.04 0 2.08 0c-1.51 13.64-6.13 23.61-11.88 32.98q-0.15-0.08-0.3-0.15 0-0.08 0-0.15c3.09-11.09 7.37-20.99 10.1-32.68zm47.84 0q0.38 0.07 0.75 0.14c-1.71 3.46-3.74 8.41-6.69 10.7-4.95 3.85-12.66 5.14-17.98 8.47-3.42 2.14-5.41 5.52-8.46 7.87q-0.08 0-0.15 0 0-0.22 0-0.44c4.91-7.78 10.31-12.67 18.12-17.53 3.29-2.05 12.5-6.54 14.41-9.21zm28.53 0q0.22 0 0.44 0c0.8 16.08-1.43 27.28-8.76 36.99-2.38 3.15-8.08 7.93-13.67 4.46-4.24-2.64-3.35-10.04-0.89-13.97 7.09-11.31 19.32-10.54 22.88-27.48zm22.28 0q9.88 0.07 19.76 0.14-0.07 0.15-0.15 0.3-2.52 1.49-5.05 2.97c-5.36 2.18-12.49 0.86-14.56-3.41zm32.39 0q8.25 0 16.49 0c1.41 9.18-3.52 14.28-10.1 16.49-2.93 0.98-9.93 1.49-11.29-1.19-1.67-6.13 3.22-11.85 4.9-15.3zm33.43 0q6.76 0.07 13.52 0.14-0.3 0.3-0.6 0.6c-3.32 6.99-14.13 3.04-20.5 3.27q0.15-0.3 0.3-0.6c2.18-0.2 6.43-1.79 7.28-3.41zm36.7 0q0.29 8.91 0.59 17.82c0.6-7.01 4.19-11.9 5.5-17.82q1.93 0 3.86 0c-3.11 6.41-7.19 13.48-9.06 20.94-1.12 4.45 0.28 9.75-1.34 13.37q0.07 0.08 0.15 0.15 0.15-0.07 0.3-0.15c0.95-2.92 3.69-5.34 6.38-6.53 1.22-0.54 2.47-0.56 3.27-1.49-0.54-2.1-2.31-3.46-2.82-5.79-1.86-8.47 6.74-14.04 13.22-15.16 9.22-1.57 13.88 13.93 7.28 17.83q-2.3-0.15-4.6-0.3-0.52 0.9-1.04 1.79 0.14 0.37 0.29 0.74 0.23 0.07 0.45 0.15 0.15-0.22 0.3-0.45 0.14-0.67 0.29-1.33 1.12 0.07 2.23 0.14 0 0.45 0 0.9-0.07 0.22-0.15 0.44c-2.56 1.01-3.46 2.22-4.16 5.05q-0.44 0.08-0.89 0.15-0.44-0.44-0.89-0.89c-0.03 1.74-0.84 1.9-1.49 2.97q0.23 0.45 0.45 0.89c1.38 0.26 3.77 0.18 4.75 0.75q1.27 2 2.53 4.01c2.68 0.02 9.12 1.23 9.36 0.89 1.07-1.53 1.23-4.44 2.23-6.54q1.63 0 3.27 0c-0.35-0.8-1.63-1.2-2.23-1.78q0-0.3 0-0.6 0.15 0 0.3 0c1.7-0.72 3.55 0.04 5.2 0.15q0-0.22 0-0.44c-0.57-0.68-1.22-0.63-2.23-0.89q0.15-1.27 0.29-2.53c-2.16 0.53-2.29 2.81-4.6 3.12q-0.3-0.37-0.6-0.74 1.94-2.75 3.87-5.5-0.23-0.3-0.45-0.59c-1.59-0.7-2.03-1.84-4.16-1.79 0.39-1.79 0.13-3.88-0.74-5.2q-0.08 0-0.15 0-0.3 0-0.59 0c-0.74 1.16-1.33 1.96-2.98 2.23q-0.22-2.37-0.44-4.75c1.44-5.7 8.4-15.2 16.64-10.1 7.77 4.8-0.73 14.3-2.82 18.27q0.07 0.3 0.14 0.59c3.07-0.14 6.99-1.34 9.51 0.3 3.8 2.47 3.86 10.05 1.19 13.82-0.96 1.35-2.6 1.62-3.86 2.67 0.72 1.64 1.99 2.8 2.38 4.9 1.13 6.15-4.55 13.93-10.55 12.34-2.78-0.74-5.51-3.31-6.54-5.8-0.47-1.12-0.41-2.34-1.19-3.12q-0.07 0-0.15 0c-1.16 7.39-7.26 11.25-14.71 7.43-1.81-0.93-3.51-1.95-4.3-3.86-2.65-6.33 6.42-9.19 8.46-12.33-3.53 0.6-4.51 3.38-7.42 4.3q0.07-0.22 0.14-0.44 1.42-1.12 2.83-2.23 0.44-1.04 0.89-2.08 1.11-0.59 2.23-1.19c-0.29-1.14-1.1-1.91-1.93-2.52q-0.23 0.22-0.45 0.44 0.3 1.12 0.59 2.23c-1.32 0.97-2.49 2.56-4.45 2.82q-0.37-0.44-0.75-0.89 0.6-0.89 1.19-1.78-0.15-0.37-0.29-0.74-0.08 0-0.15 0-0.75 0.37-1.49 0.74c0.11 1.13 0.39 1.22 0.15 1.93-1.06 0.27-2.09 0.7-2.53 1.63-0.3 1.56 1.02 2.28 1.34 3.72-4.52 3.32-11.52 2.54-14.26-1.93q-0.3 0-0.59 0c-1.11 14.48-4.09 28.11-7.28 40.7-0.63 2.45-2.55 12.96-4.02 13.67 1.64-8.65 3.7-17.81 5.5-26.74 1.65-8.14 1.32-16.3 2.68-25.11q0.29-5.87 0.59-11.73 0.07-5.2 0.15-10.4c0-8.05-0.11-15.78-1.04-22.73q1.71 0 3.42 0zm59.13 0q3.04 0 6.09 0c3.46 4.68 10.21 8.08 18.12 6.09 1.36-0.34 2.62-0.34 3.57-1.04q0-0.08 0-0.15c-6.86 0.19-11.62-0.36-14.12-4.9q13.67 0.07 27.34 0.14-1.11 1.19-2.23 2.38c-3.66 1.76-6.42 4.85-10.84 6.24-10.36 3.26-24.98-1.16-27.93-8.76zm110.23 0q5.28 0.07 10.55 0.14c-0.64 0.63-1.09 0.69-1.34 1.79q1.86 0.67 3.72 1.33c0.04 1.49-1.62 2.27 0.44 3.12 1.06-0.18 1.33-0.72 2.08-1.18q0.08 0.07 0.15 0.14c-1.71 2.28-3.33 5.03-5.79 6.54q-1.93 0.82-3.87 1.64 0 0.22 0 0.44c1.54 1.03 2.73 2.29 3.87 3.72 11.23 14.07-15.22 14.75-25.26 10.84 0.87-4.6 6.88-11.74 10.25-14.11q2.75-1.41 5.5-2.83c-0.27-3.08-3.27-6.52-2.23-9.21q0.97-1.19 1.93-2.37zm15.45 0q5.65 0 11.29 0c-1.15 3.17-3.88 5.95-8.17 5.05-1.59-1.17-2.75-2.62-3.12-5.05zm14.12 0q2.23 0.07 4.45 0.14 0 0.08 0 0.15c-1.42 0.09-3.52 0.48-4.45-0.29zm26.89 0q9.28 0 18.57 0c-0.99 7.3-2.4 12.32-6.98 15.89-4.42 3.45-10.4 5.21-13.38 10.1-1.33 2.2-1.72 5.16-2.22 8.18-0.29 1.73 0.92 4.39 0 5.05-4.38-16.63-2.54-26.25 4.01-39.22zm29.71 0c0.19 7.84-4.65 19.04-11.29 18.86-2.27-7.97 4.93-14.1 6.69-18.86q2.3 0 4.6 0zm-71.76 0.74q0.23 0.15 0.45 0.3-0.52 0.59-1.04 1.18-0.08 0-0.15 0 0.37-0.74 0.74-1.48zm13.23 0c0.93 0.55 1.23 1.6 2.37 2.08 2.77 1.16 11.4 1.27 9.36 6.24-0.53 1.05-1.77 1.12-2.52 1.93 0.21 0.76 0.02 1.22-0.3 1.78-7.33 2.43-8.72-5.4-8.91-12.03zm-586.55 2.08c2.16-0.06 4.67-0.19 6.24 0.44 2.9 1.17 5.93 5.49 2.23 8.03-3.5 2.39-20.71 1.23-26.15 0.15 0.71-3.02 10.06-6.73 13.37-7.73q2.16-0.45 4.31-0.89zm569.61 0.3q-0.37 0.29-0.74 0.59 0.22 0.22 0.44 0.45 0.22 0 0.45 0 0.37-0.15 0.74-0.3 0-0.3 0-0.6-0.15 0-0.3 0-0.29-0.07-0.59-0.14zm-58.39 0.29c8.98-0.14 15.94 1.98 19.61 7.13 5 7.02 2.3 16.53-4.01 20.36-5.63 3.41-14.59 2.38-23.17 2.37q-6.1-0.07-12.19-0.14c-2.94-0.45-6.99-0.66-10.1-0.15-20.25 3.28-30.46 14.72-39.07 29.56-2.29 3.94-7.03 13.7-5.2 20.65q0.29 0 0.59 0c0.81-0.78 1.8-1.52 3.12-1.78q0 0.3 0 0.59c-1.16 2.27-3.41 3.71-4.16 6.39q-0.3 4.31-0.59 8.62c-5.44 1.43-10.6-0.52-13.23 4.01q-0.07 0.37-0.14 0.74 0.14 0.15 0.29 0.3c2.47 0.54 6.24 0.03 8.77 0.45q0.07 0.15 0.15 0.29-0.08 0.3-0.15 0.6c-1.09 1.95-4.31 1.28-6.09 2.52q-1.04 1.64-2.08 3.27c2.22 3.73 5.65-2.36 6.39-3.41q0.29 0 0.59 0c1.16 1.13 1.46 3.11 1.04 5.05q-0.52 0.52-1.04 1.04-0.3 0-0.59 0-0.6-1.12-1.19-2.23-0.23 0-0.45 0c-0.69 1.67-4.25 6.71-6.39 5.94-1.9-1.03-2.32-4.22-3.12-6.39q-0.29 0-0.59 0c-0.91 0.77-3.42 2.45-5.05 1.79-0.84-0.4-1.06-1.15-1.19-2.23q0.22-0.15 0.44-0.3c1.7-0.71 3.26-0.44 4.02-2.08 0.78-2.2 0.2-3.25 1.63-4.61q0.45 0.08 0.89 0.15 0 0.08 0 0.15c-0.21 0.93-0.48 1.48-0.3 2.53q0.23 0.07 0.45 0.15 0.22 0.07 0.45 0.14 0.37-0.44 0.74-0.89c2.21-8.59-8.34-4.03-6.98-14.56q0.29-0.15 0.59-0.29 2.01 0.44 4.01 0.89 0 0.29 0 0.59c-0.65 0.71-1.22 1.44-1.34 2.68q0.23 0.22 0.45 0.44 0.45-0.07 0.89-0.15c1.44-0.73 1.4-2.08 3.57-2.23 1.79 0.98 1.32 3.33 2.82 4.31 0.51 0.15 10.67-0.23 10.85-0.29 0.05-3.34-0.82-6.9-2.98-8.32-0.84-0.56-1.94-0.21-2.52-1.04-2.24-4.85 3.5-5.82 4.75-7.43q0.45-2.6 0.89-5.2 1.34-3.64 2.68-7.28c8.06-18.34 23.58-34.6 43.23-41.45 4.43-1.55 11.67-2.95 17.98-1.93 2.63 0.42 8.31 1.39 10.69 0.29q0-0.07 0-0.15c-2.98-9.51-22.88-3.96-29.11-1.04q-0.15-0.14-0.3-0.29c4.26-7.19 12.79-13.06 21.1-16.2 2.87-1.08 6.49-0.68 9.65-1.93zm-634.83 1.79c11.24-0.13 22.16 14.17 17.83 26.44-2.89 8.19-10.8 14.57-17.98 18.57q-0.14-0.07-0.29-0.15 0.29-0.29 0.59-0.59c2.43-5.07 11.03-10.74 9.36-19.91-1.55-8.55-8.26-9.87-11.88-15.9-2.22-3.68-0.24-6.88 2.37-8.46zm700.2 0.89q0.3 0 0.6 0 0 0.44 0 0.89c-0.36 1.05-0.18 2.25 0.59 2.67 0.7 0.31 1.12 0 1.49-0.44q-0.3-0.89-0.6-1.79 0.08 0 0.15 0 0.15 0.08 0.3 0.15 0.29 0.82 0.59 1.64c1.41-0.35 0.93-1.54 2.08-2.08q0 0.07 0 0.15c-0.3 0.59-0.5 1.01-0.3 1.78q0.08 0 0.15 0 0.3-0.08 0.6-0.15 0.22-0.82 0.44-1.63-0.29-0.38-0.59-0.75 0.15-0.22 0.3-0.44c4.44 2.49 4.48 13.23-2.08 13.52-0.63-0.44-1.45-1.59-2.08-1.79-1.12-0.34-1.76 0.07-2.68-0.44-1.45-3.64-0.18-8.28 1.04-11.29zm-14.56 0.89c-0.51 0.51-0.76 0.67-0.89 1.63 1.11 1.16 1.99 1.27 3.86 1.79-0.23-1.12-0.78-2.17-1.33-2.98q-0.82-0.22-1.64-0.44zm6.09 0.59q-0.81 1.56-1.63 3.12 0.59 0 1.19 0 0.96-0.89 1.93-1.78c-0.09-0.86-0.24-0.84-0.6-1.34q-0.07 0-0.14 0-0.38 0-0.75 0zm-594.12 1.04c6.15 0.59 11.41 9.44 4.61 12.18-7.71 3.12-12.25-8.63-4.61-12.18zm134.31 0.3c1.56 0.64 2.22 2.1 2.97 3.57 3.91 7.63-1.19 13.21-6.24 16.19-0.98 0.57-2.4 1.79-3.42 1.78q0-0.07 0-0.15 1.26-1.71 2.53-3.41c1.15-1.91 1.94-4.46 2.52-6.84 0.77-3.16-0.01-8.6 1.64-11.14zm34.02 1.93c3.58 2.08 1.85 13.47 0.3 16.34q-3.57 4.83-7.14 9.66c-3.3 5.33-6.6 11.21-8.61 17.68q-1.04 4.9-2.08 9.81c-0.75 3.08-1.91 6-2.08 9.65q0.15-0.07 0.3-0.15c1.94-9.52 9.04-14.71 18.27-17.23 2.51-0.68 7.14-2.11 10.1-1.34-0.05 8.4-3.71 11.15-10.7 12.63-4.74 1.01-13.07-0.29-13.51 5.05q0.22 0.15 0.44 0.3 3.34-1.19 6.69-2.38c12.95-3.52 15.55 4.01 19.31 12.04 0.66 1.4 2.23 2.4 2.67 3.86-5.54-1.44-8.29-8.5-12.92-11.29-2.04-1.23-5.59-2.16-8.77-1.64-10.23 1.68-13.19 7.99-15.15 17.83q-0.22 0.08-0.45 0.15c1.48-9.9 4.55-16.4 1.34-25.7-0.58-1.69-0.88-3.55-2.08-4.61-9.83 1.35-10.16-2.38-11.44-10.99q-0.15-3.57-0.3-7.13 0.08 0 0.15 0c6.59 1.63 10.16 4.15 12.48 9.95 0.73 1.81 2.6 11 3.87 11.44q0-0.37 0-0.74c-0.71-2.41-0.75-6.79-0.3-9.51 0.68-4.13 0.78-7.39 2.08-10.7 1.63-4.13 4.28-7.39 6.24-11.14-0.63-0.5-1.62-0.95-2.53-0.74q-0.07 0.15-0.15 0.29c0.32 0.84 0.4 2.04 0 2.83-5.86 1.12-7.3-11.17-5.34-16.64 8.26 0.45 11.71 5.11 10.99 13.96q0.22-0.07 0.44-0.15c0.89-1.76 2.32-2.94 3.42-4.45 3.29-4.52 5.01-9.68 4.46-16.94zm269.8 2.53c-2.14 1.93-5.7 2.86-4.61 7.13q0.6 0.44 1.19 0.89c1.08 0.3 1.7-0.12 2.67-0.3 0.77 1.24 4.38 1.87 3.27-0.59-0.36-0.75-1.03-1.01-1.63-1.49 0.35-1.87 1.62-1.86 1.78-4.01q-0.3-0.52-0.59-1.04-1.04-0.3-2.08-0.59zm-55.12 0.29c2.53 0.46 4.51 1.98 6.39 3.12 8.16 5 12.82 11.35 15 22.44 0.55 2.79 1 13.6-0.44 15.6q-0.15-0.08-0.3-0.15c0.19-9.28-3.59-21.2-8.17-25.7q-0.08 0-0.15 0c-1.53 2.27 0.99 7.58 1.63 9.65 2.48 7.99 3.75 15.91 4.61 25.71 0.16 1.76 0.89 8.7 0.3 9.65q-0.15-0.22-0.3-0.44-0.59-2.83-1.19-5.65c-1.18-4.56-2.39-9.91-4.6-13.67-3.53-5.97-8.49-10.26-13.23-15q-2.75-2.9-5.49-5.8c-2.52-1.99-5.23-3.5-7.43-5.79q0-0.22 0-0.45 0.22-0.15 0.44-0.29c2.26 0.75 7.66 5.37 10.11 4.45q0.29-0.15 0.59-0.29 0.07-0.52 0.15-1.04c-1.9-2.47-3.89-4.56-5.94-6.84q0.66-1.34 1.33-2.67 0.37 0 0.75 0c2.95 1.12 4.68 4.81 6.53 7.13 1.44 1.8 3.65 2.74 5.65 4.01 0.96 0.61 1.42 1.59 2.67 1.93q0-0.3 0-0.59c-1.55-4.56-10.34-14.04-8.91-19.32zm-57.94 0.75c1.31 0.48 1.97 2.29 2.67 3.41 3.44 5.5 5.86 13.86-0.74 18.13-0.83 0.53-2.38 1.59-3.86 1.34-2.46-0.42-3.95-2.04-5.06-3.87-4.69-7.76 4.42-13.92 6.99-19.01zm111.87 0.44q0.22 0 0.44 0c0.86 0.61 1.53 1.3 1.64 2.68-0.6 0.98-0.73 1.53-1.78 2.08q-0.38-0.3-0.75-0.6c-0.33-0.79-1.05-2.03-0.59-3.12q0.52-0.52 1.04-1.04zm-428.02 0.3c10.55 0.95 19.3 0.96 24.06 7.58 1.68 2.32 3.3 6.81 1.19 9.95-1.9 0.6-3.66 0.32-5.05-0.74q-2.67-2.68-5.35-5.35-4.38-3.34-8.76-6.69-3.05-2.37-6.09-4.75zm-126.73 0.45c17.68-0.29 18.28 24.38 11.14 36.1-0.95 1.56-1.55 3.37-2.97 4.45q-0.15-0.14-0.3-0.29c4.72-6.72 5.57-22.18 0.45-28.97-1.54-2.04-6.01-5.77-9.66-3.12-2.82 2.04-2.19 5.12-3.71 8.61q-0.23-0.15-0.45-0.29c-0.18-8.9-0.78-13.25 5.5-16.49zm113.21 0.89c-0.45 3.04-12.59 10.94-15.9 12.18-2.8 1.04-6.74 0.63-7.87-1.64-1.56-3.1 0.99-5.98 2.52-7.13 4.76-3.57 13.16-3.53 21.25-3.41zm454.46 0.15c0.57 0.19 0.31-0.01 0.6 0.44 0.55 1.34-0.6 2.69-1.04 3.57q0.37 0 0.74 0-0.67 1.26-1.34 2.52-0.07 0-0.14 0c0.12-1.56-0.2-2.04-0.45-3.27 0.94-0.76 1.01-2.21 1.63-3.26zm5.95 0.59c-0.04 0.49-0.14 0.34 0.15 0.74q0.14-0.22 0.29-0.44-0.22-0.15-0.44-0.3zm-12.19 0.45q-0.22 0.29-0.44 0.59 0.07 0.59 0.15 1.19c0.59 0.08 0.38 0.2 0.74-0.3q0.07-0.67 0.15-1.34-0.15-0.07-0.3-0.14-0.15 0-0.3 0zm-435.15 1.93c1.69 0.55 2.86 2.52 4.16 3.56 5.07 4.04 9.31 8.02 13.37 13.08q-0.07 0.14-0.15 0.29-0.07 0-0.15 0c-7.67-1.29-15.76-9.53-17.23-16.93zm438.27 0.44c0.74 0.12 0.45-0.1 0.75 0.45q-1.27 0.59-2.53 1.19 0.08-0.15 0.15-0.3 0.82-0.67 1.63-1.34zm-448.37 0.89c0.66 0.15 0.59 0.1 0.89 0.6q-0.3 3.86-0.6 7.72c-1 6.17-0.86 10.39-5.19 13.08-1.14 0.7-2.98 1.5-4.76 0.74-2.44-1.04-2.65-4.97-1.48-7.58 2.57-5.75 6.18-11.16 11.14-14.56zm5.2 0.89c1.39 0.78 1.49 3.46 2.08 5.06 1.5 4.04 7.03 19.41-0.15 20.8-3.77 0.72-4.02-3.65-4.46-6.54-0.69-4.56 0.82-16.18 2.53-19.32zm447.78 1.19q1.11 0.82 2.23 1.64 0 0.07 0 0.15-1.04 1.04-2.08 2.08-0.3-0.08-0.6-0.15-0.14-0.67-0.29-1.34 0.37-1.19 0.74-2.38zm-6.09 1.49c9.96-0.38 6.18 14.73-1.93 12.18-3.75-1.18-3.87-7.06-1.64-9.95 0.92-1.2 2.11-1.53 3.57-2.23zm19.91 0.74c-1.27 1-2.05 2.13-3.42 3.12q0.07 0.15 0.15 0.3 0.74 0.22 1.48 0.44 0.08 0.23 0.15 0.45-0.37 0.89-0.74 1.78c1.11-0.24 2.34-0.14 3.57-0.29 0.63-0.49 0.94-1.04 1.18-1.94q0.15 0 0.3 0 0 0.3 0 0.6c-0.64 1.77-1.58 3.84-3.42 4.31-1.07 0.27-1.42-0.57-2.37-0.3q-0.3 0.15-0.6 0.3c-0.18 0.78-0.29 1.42-0.15 2.23 4.21 1.99 9.87-2.34 8.03-7.43-0.55-1.51-1.98-2.61-3.12-3.57q-0.52 0-1.04 0zm-30.91 1.04q-0.22 0.3-0.44 0.6 0 0.22 0 0.44 0.44-0.15 0.89-0.3c-0.13-0.67 0.02-0.44-0.45-0.74zm-362.65 1.34c8.88-0.04 13.37 8.04 15.45 14.86q0.67 3.49 1.34 6.98c1.45 3.97 6.22 5.64 7.87 11.14 3.19 10.62-4.91 29.09-9.95 33.87-1.2 0.08-2.06 0.09-2.53-0.59q-0.52-2.15-1.04-4.31c-1.17-1.67-7.65-2.75-9.65-4.31-4.48-3.47-5.63-14.6-3.12-21.54 7.13 0.63 14.32 8.84 16.19 15.01q0.45 3.71 0.89 7.42 0.3-0.22 0.6-0.44c2.49-13.81 0.76-27.5-5.95-36.1-3.86-4.95-11.09-6.86-14.41-12.33-3.27-5.41 0.52-7.89 4.31-9.66zm360.72 0.59c-1.18 0.97-2.27 1.97-2.67 3.72q0.22 0 0.44 0c1.8-0.51 3.12-0.84 3.27-2.97q-0.29-0.38-0.59-0.75-0.22 0-0.45 0zm-613.43 2.68c3.62-0.33 7.53-1.55 11.59-2.23 3.64-0.61 8.1-0.15 11.29 0.44 15.48 2.88 28.49 8.06 36.55 18.28 2.96 3.77 5.56 8.25 7.13 13.37 6.97 22.8-11.28 47.34-23.18 56.16q-0.07 0-0.15 0 3.86-5.28 7.73-10.55c5.53-9.04 9.48-17.68 11.44-30.61 0.5-3.32-0.48-6.73-1.19-9.06-2.82-9.2-8.84-13.84-19.32-15.45-7.19-1.1-14.88 2.25-20.94 3.42-7.79 1.5-14.79 1.6-20.95 4.16q0-13.97 0-27.93zm352.99-1.64c3.58-0.07 7.02 0.05 9.66 1.04-0.08 2.1-1.09 3.8-1.93 5.2-1.49 2.48-2.87 4.33-5.35 5.8-4.06 2.4-9.76 2.17-11.59 6.83q-0.29 0-0.59 0 0-0.15 0-0.3c-2.01-5.46 4.16-15.38 6.68-17.23q1.56-0.67 3.12-1.34zm512.27 1.93q0 13.9 0 27.79c-3.36 0.31-6.74 2.94-9.22 4.45-7.46 4.58-14.24 9.85-19.31 16.79-1.19 1.63-5.65 10.35-6.83 10.85 3.56-22.29 7.53-41.39 22.13-52.45 3.39-2.56 8.18-6.93 13.23-7.43zm-108.16 1.64c14.45-0.22 27.23 4.04 25.7 19.02q-0.22 0-0.45 0c-5.3-2.53-17.66-2.29-25.1-1.19-2.85 0.42-8.34 1.24-11.15 0.15-4.21-1.65-4.24-8.15-1.93-11.89 1.68-2.71 5.29-4.62 8.77-5.5q2.08-0.29 4.16-0.59zm-114.25 2.08c0.8 0.17 0.87 0.24 1.04 1.04q-0.3 0-0.59 0c-0.26-0.42-0.33-0.38-0.45-1.04zm63.29 0q0.82 0.07 1.63 0.15c10.54 7.75-0.88 31.29-14.41 23.17-9.68-5.81-1.31-17.99 5.05-20.94q3.87-1.19 7.73-2.38zm12.92 0.59c24.39-0.31 31.22 34.99 8.92 41.6-3.1 0.92-6.81 0.24-9.06-0.89-10.56-5.29-1.7-18.68-3.57-30.31-0.77-4.83-3.01-6.01-4.9-9.21 2.17-1.36 5.96-0.14 8.61-1.19zm-214.82 2.23c0.66 0.13 0.51 0.14 0.89 0.45-5.48 11.95-18.7 20.06-32.84 23.17-7.58 1.68-16.76 1.64-25.7 1.64q-6.09 0.07-12.18 0.15c-8.64 1.35-16.06 2.2-23.62 4.16 2.42-2.06 7.85-2.12 11.29-2.97 5.2-1.29 11.2-1.42 17.23-2.38q5.35-0.22 10.7-0.45c5.2-0.83 10.05 0.03 14.86-0.89 11.79-2.26 21.65-5.15 29.41-11.29 4.09-3.23 6.36-7.89 9.96-11.59zm128.36 0.6q-0.22 0.22-0.45 0.44 0.15 0.22 0.3 0.45 0.45-0.15 0.89-0.3 0-0.3 0-0.59-0.37 0-0.74 0zm4.46 0.14q-1.42 1.94-2.83 3.87 0.08 0.37 0.15 0.74 0.3 0 0.6 0 0.37-0.3 0.74-0.59c0.16-1.56 1.7-2.25 1.34-4.02zm6.09 0c-0.64 0.76-0.86 2.06-1.34 2.98q-1.78-0.45-3.57-0.9-0.44 0.38-0.89 0.75c0.19 0.45 0 0.17 0.3 0.44q2.01 0.3 4.01 0.6c0.12 0.67 3.07 2.93 3.72 3.41q0.37-0.07 0.74-0.14c-0.11-1.74-0.95-2.03-1.78-2.98q0.07-0.22 0.14-0.44 0.82-0.22 1.64-0.45 0-0.37 0-0.74c-0.86-1.16-1.16-2.28-2.97-2.53zm-197.3 1.94q0.22 0 0.44 0-0.14 0.22-0.29 0.44-1.93 2.08-3.86 4.16c-8.8 8.79-21.6 12.57-33.88 17.98-7.4 3.26-13.91 8.29-19.91 13.07q-2.15 2.23-4.3 4.46c1.11-3.61 5.34-6.73 7.57-9.51 6.01-7.45 14.98-13.07 24.37-17.08 10.56-4.52 21.94-6.53 29.86-13.52zm88.55 0.74c3.07-0.11 6.68 0.25 8.02 1.93-2.13 4.24-11.34 7.27-16.64 3.71q0-0.07 0-0.14c2.66-2.56 4.91-3.81 8.62-5.5zm-246.63 0.44c4.22 1.41 7.19 14.92 5.95 21.99-1.87 10.61-6.75 18.24-13.67 23.77-2.06 1.65-4.47 4.85-7.13 5.65 0.59-1.98 3.14-3.85 4.31-5.5 2.12-2.99 4.04-6.57 5.49-10.1 4.17-10.16 4.06-22.5 5.05-35.81zm341.56 0.3q-0.22 0.45-0.45 0.89 0.3 0.23 0.6 0.45 0.07 0 0.15 0 0.22-0.3 0.44-0.6-0.37-0.37-0.74-0.74zm-5.35 0.6q-0.07 0.29-0.15 0.59 0.23 0.07 0.45 0.15 0.15-0.08 0.3-0.15-0.08-0.22-0.15-0.45-0.23-0.07-0.45-0.14zm2.53 0.59q0.07 0.15 0.15 0.3c-0.07-0.14 0.11-0.1-0.15-0.3zm-9.07 2.97q-0.37 0.37-0.74 0.74c-0.36 0.41-0.43 0.69-0.44 1.49 0.2 0.39 0.24 0.5 0.59 0.74q0.82 0.23 1.63 0.45c-0.06 1.02-0.31 2.06 0.15 2.67 1.24-0.98 1.94-2.84 2.53-4.45-0.87-0.66-2.53-1.45-3.72-1.64zm21.84 0c-0.84 0.8-1.22 1.37-1.18 3.12q0.22 0.08 0.44 0.15c0.96-0.54 1.58-1.39 2.08-2.38q-0.15-0.37-0.3-0.74-0.52-0.07-1.04-0.15zm-11.14 0.15c-0.18 0.54-0.15 0.81 0.15 1.19q0.22-0.15 0.45-0.3 0.07-0.15 0.14-0.3-0.07-0.22-0.14-0.44-0.3-0.08-0.6-0.15zm-417.47 0.15c5.88 1.63 11.02 14.38 12.92 20.8 1.68 5.66-0.78 10.79-6.09 11.14q-0.15-0.07-0.3-0.15c0.36-7.92-1.78-10.62-4.01-16.34-1.01-2.59-1.18-5.26-1.78-8.32q-0.37-3.57-0.74-7.13zm344.38 0.15c2.33-0.02 4.83 0.33 6.38 1.19q-0.22 0.29-0.44 0.59c-3.7 1-7.11 3.29-8.92 6.24-0.68 1.12-1.02 2.83-2.07 3.57q-2.98 0.96-5.95 1.93-2.6 1.56-5.2 3.12-0.37-0.08-0.74-0.15 0-0.08 0-0.15c1.44-7.47 5.02-12.74 11.29-15.3q2.82-0.52 5.65-1.04zm-393.71 1.63q0.15 0.15 0.3 0.3c-2.3 6.14 5.11 13.2 7.43 16.34 6.54 8.87 12.51 17.55 21.39 24.07 4.46 3.27 9.5 5.57 14.41 8.47q-0.07 0.15-0.15 0.29-0.07 0-0.14 0c-17.5-4.2-31.06-8.98-40.56-20.94-7.4-9.31-9.79-16.94-2.68-28.53zm461.9 0q-0.3 0.22-0.6 0.45c-0.3 1-0.67 1.6-0.44 2.82 0.41 0.62 1.16 1.39 2.08 1.04 0.94-0.48 1.29-1.76 1.34-3.12-0.6-0.95-0.73-1.25-2.38-1.19zm-418.52 0.6q0.3 0.14 0.6 0.29c0.91 4.65 1.49 9.32 3.12 13.37 2.13 5.29 7.19 8.22 3.42 14.27q-0.52 0.07-1.04 0.14c-9.97-6.27-15.11-16.33-6.1-28.07zm336.21 1.18q0.23 0 0.45 0-0.08 0.23-0.15 0.45c-3.35 1.38-4.44 4.93-6.39 7.73q-5.79 0-11.59 0 0-0.08 0-0.15c2.61-2.38 4.3-5.04 8.17-6.24 3.03-0.94 7.32-0.1 9.51-1.79zm100.58 1.64c-1.18 0.64-3.23 0.13-4.16 0.74q0.15 0.15 0.3 0.3c0.71 1.5 3.19 1.78 4.61 0.89q0.29-0.67 0.59-1.34c-0.36-0.56-0.39-0.59-1.34-0.59zm121.98 0.74c8.46-0.18 13.67 1.05 17.08 5.8 1 1.38 3.12 4.4 1.93 7.28q-0.37 0.44-0.74 0.89c-3.88 0.02-7.57-0.16-9.81 1.48-3.46 2.55-3.48 8.9-10.99 6.69-5.02-1.48-17.06-9.3-11.88-16.05 2.32-3.03 6.8-4.65 11.14-5.64q1.63-0.23 3.27-0.45zm-681.93 2.08c1.36 0.89 1.98 2.89 2.82 4.31 4.83 8.17 6.46 22.49 2.38 32.83-6.75 17.14-22.08 26.5-38.77 33.73-5.33 2.31-11.55 4.95-18.13 5.79q0.22-0.37 0.45-0.74 9.73-7.5 19.46-15.01c17.89-13.55 33.28-28.41 31.79-60.91zm142.18 0.74c1.01 0.12 1.04 0.44 1.64 0.9 1.65 3.8 3.62 6.65 1.18 11.58q-0.44-0.14-0.89-0.29c-0.69-3.7-3.42-7.72-1.93-12.19zm-113.06 1.64c6.89 1.43 15.34 4.64 20.21 8.47 4.16 3.28 6.89 8.23 10.1 12.48 4.29 5.67 10.23 10.88 16.34 14.7 6.02 3.78 12.9 6.39 20.5 8.62q5.8 1.12 11.59 2.23 0 0.07 0 0.15c-25.15-2.83-56.29-7.86-68.34-23.48-1.92-2.49-3.43-5.38-4.31-8.91-0.73-2.93-0.73-5.58-1.78-8.02-1-2.32-3.58-3.99-4.31-6.24zm452.98 3.12c6.14-0.1 9.75 3.77 10.7 8.76-2.24-0.79-3.26-3.87-5.79-4.9-8.88-3.58-15.31 4.94-16.64 11.44q-0.15 0.07-0.3 0.15-0.15-0.08-0.3-0.15c0.58-7.51 2.95-12.09 8.62-14.41q1.86-0.45 3.71-0.89zm-76.21 2.08c11.9-0.23 15.09 7.49 21.09 13.07 1.27 1.17 6.58 3.47 5.95 5.2-9.81 3.22-22.48 4.72-28.68-3.56-2.01-2.69-2.4-6.88-5.05-8.92-1.96-1.51-5.34-1.17-6.83-2.23q0.07-0.14 0.15-0.29c3.15-0.02 10.77-2.11 13.37-3.27zm-453.43 1.34c2.59 1.26 5.87 7.01 7.43 9.65 10.91 18.5 2.61 40.34-11.74 49.48q-0.22 0-0.44 0 0-0.08 0-0.15 2-2.53 4.01-5.05c2.31-3.42 4.31-7.42 5.64-11.74 3.25-10.54 1.95-25.53-1.33-34.91-0.92-2.62-2.86-4.95-3.57-7.28zm388.65 3.56c22.21-0.22 35.78 6.99 40.86 23.62 1.36 4.45 1.44 9.46 2.23 14.56q0.15 3.35 0.29 6.69-0.14 0.15-0.29 0.3-0.23-0.15-0.45-0.3c-0.36-4.57-1.9-8.82-2.97-12.93-4.48-17.12-9.1-24.52-27.04-28.22-3.86-0.8-9.52-1.51-14.11-0.75q-5.13 0.75-10.25 1.49c-5.95 1.61-11.32 3.55-16.05 6.39-5.59 3.34-10.79 8.05-14.56 13.22-1.15 1.58-4.56 8.53-5.94 9.06 2.86-13.93 20.64-27.91 33.72-31.94 1.59-0.49 2.65 0.31 4.61 0q4.98-0.59 9.95-1.19zm140.99 0.15c4.76-0.1 8.72 2.83 9.51 6.54-1.34-0.52-1.64-2.13-2.82-2.83-3.2-1.89-6.37 1.84-8.02 3.12q-0.3-0.15-0.6-0.29c-0.35-2.24 0.01-4.79 0.89-6.24q0.52-0.15 1.04-0.3zm246.18 0.89q0.45 0.08 0.89 0.15 0 0.07 0 0.15c-0.58 5.22-1.48 11.42-0.15 16.79 1.3 5.21 4.7 11.41 3.57 18.27-1.59 9.59-4.88 14.18-7.88 21.54-0.6 1.49-1.34 7.95-1.93 8.77q-1.93-2.68-3.86-5.35c-8.09-10.23-19.84-21.92-13.82-42.05 1.01-3.36 2.43-6.64 4.31-9.21 2.8-3.83 7.51-6.69 12.78-8.02q3.04-0.52 6.09-1.04zm-171.89 1.93q0.22 0 0.44 0 0.23 0.3 0.45 0.6c-0.29 1.66 1.08 3.53 0.44 5.2-1.28 2.52-5.91 3.18-6.68 5.79-0.89 3 2.52 5.3 2.52 6.98-4.4-2.28-6.4-10.72-2.82-15.45 1.29-1.7 3.74-2.01 5.65-3.12zm18.42 1.34c0.68 0.57-0.13 3.1-0.45 4.31q-1.33 5.94-2.67 11.88 1.49-0.74 2.97-1.48 3.12-0.3 6.24-0.6 0 0.23 0 0.45c-1.37 2.21-2.58 5.63-4.46 7.43-2.86-0.15-4.68-1.44-6.68 0.59q0.07 0.45 0.15 0.89c0.83 1.57 2.43 2.31 2.97 4.31 1.07 3.96-2.75 8.25-7.43 6.98-4.28-1.15-4.82-8.84-1.04-10.99q1.78-0.3 3.57-0.59c2.14-3.38 0.75-8.81 1.63-13.67 0.83-4.59 2.39-6.99 5.2-9.51zm-651.32 4.6c6.13-0.13 12.86 0.61 16.64 3.12q-0.67 3.94-1.34 7.88-0.22 5.05-0.44 10.1c-2.26 11.01-8.13 17.95-19.91 19.46q0-19.9 0-39.81 2.52-0.37 5.05-0.75zm860.21 0.9q0 19.83 0 39.66c-6.8 0.04-11.34-1.37-16.64-2.82-2.49-0.68-5.92-1.81-9.51-1.19-1.68 0.29-2.46 1.25-3.87 1.64q0.45-0.6 0.9-1.19c3.45-1.71 11.02-10.94 12.62-14.86 3.55-8.69 3.04-14.29 10.85-19.02 1.58-0.95 3.29-2.08 5.65-2.22zm-176.21 0.74q0.3 0.15 0.6 0.3c0.05 1.31 0.59 3.83-0.3 4.45q-3.19 0.75-6.39 1.49c-7.71 2.31-13.67 4.71-17.53 10.84-0.76 1.22-1.98 2.5-2.23 4.16q0.75 0 1.49 0c3.71-1.06 9.75-1.25 13.22-0.14q-0.44-0.52-0.89-1.04-0.07-0.6-0.15-1.19 0.22-0.15 0.45-0.3c4.45-1.89 11.65-0.15 13.52 2.23q0 0.3 0 0.59c-2.11 1.63-8.27 7.6-12.78 5.8-1.73-1.18-1.18-3.24-2.23-4.76-1.09 0.54-2.25 0.59-2.97 1.49 2.76 3.46-0.55 5.5-1.04 8.76q1.49 0.82 2.97 1.64c1.03-0.38 1.44-1.63 2.68-1.34 1.55 0.5 3.1 3.64 3.26 5.5q-0.22 0.15-0.44 0.3c-4.59 2.55-7.56-3.13-10.55-3.57q-1.49 1.71-2.97 3.42-0.3-0.08-0.6-0.15c-0.43-5.16-3.7-5.54-8.02-6.84-1.08-0.32-2.6-0.88-3.86-0.29 0.12 9.34 2 18.12-5.2 21.09-1.68-0.78-3.39-4-2.38-6.83q0.89-1.41 1.79-2.82c0.6-2.36-2.1-2.99-0.75-5.05 1.4-0.57 3.35-1.66 4.76-2.53q-0.6-2.82-1.19-5.65 0.22-0.14 0.44-0.29c2.94-1.06 10.31 3.25 12.19 2.08-0.82-1.14-2.74-3.74-1.94-5.8q0.15-0.29 0.3-0.59c2.29 0.09 2.42 1.37 4.01 1.93q0.08-0.07 0.15-0.15-0.07-0.52-0.15-1.04c-1.44-2.8-5.62-1.48-8.17-3.12q-0.15-0.37-0.3-0.74 0.08-0.37 0.15-0.74 0.23-0.08 0.45-0.15c0.99-0.37 2.33 0.04 3.12-0.3 0.04-3.18 1.9-4.68 2.23-6.98 0.13-0.95-0.78-1.99-0.45-3.42 1.05-4.49 7.35-7.77 12.18-8.32 0.65 0.69 1.11 1.57 1.94 2.08 2.43-0.32 9.66-2.84 11.58-4.01zm-373.05 5.05c0.56 0.5-0.36 7.53 0 9.81 1 6.33 2.75 10.02 5.5 14.26q-0.08 0.15-0.15 0.3c-12.53-1.05-10.72-17.08-5.35-24.37zm231.02 1.04c4.21-0.01 5.88 5 5.05 9.81q-1.11 6.98-2.22 13.96c-0.88 5.48 0.22 12.19 0.59 16.79 2.32 0.57 3.8 0.87 5.35 2.08 5.74 4.5 1.65 12.92-4.76 13.96-5.5 0.9-10.32-5.39-8.02-11.14 1.28-3.18 3.57-3.21 6.39-4.9q-1.11-0.15-2.23-0.3c-4.41-11.05-14.32-31.24-0.15-40.26zm92.12 0q-0.15 0.3-0.3 0.59c0.42 0.66 0.49 1.03 1.19 1.04q0-0.14 0-0.29c0.22-0.58 0.05-0.9-0.45-1.19q-0.22-0.08-0.44-0.15zm28.97 0.74c-1.33 1.71-2.91 2.6-2.98 5.65 1.99-0.57 3.39-3.58 2.98-5.65zm-139.95 3.42c3.65 0.4 4.52 4.45 5.49 7.58 2.14 6.85 3.55 14.35 6.24 20.65 1.34 3.13 4.88 6.9 5.65 9.51-6.12-1.94-16.23-17.47-18.42-24.22-1.37-4.19-2.04-10.99 1.04-13.52zm46.5 0.3c6.88-0.04 6.63 9.33 4.6 14.56-2.92 7.52-8.04 11.86-12.63 17.53-2.02 2.5-4.79 5.91-7.72 7.43q-0.45-0.23-0.89-0.45c-2.74-12.51 3.86-30.71 10.69-36.1 1.84-1.45 3.54-1.93 5.95-2.97zm82.3 2.52q0 0.23 0 0.45 0.23 0.07 0.45 0.15 0-0.3 0-0.6-0.22 0-0.45 0zm-146.78 0.75c7.23 0.07 9.59 6.31 12.33 10.99 3.71 6.35 7.42 12.57 11.89 18.13 2.39 2.98 5.76 4.75 8.61 7.27q-0.07 0.23-0.15 0.45c-3.62 1.05-8.85-1.72-11.44-2.82-9.68-4.13-16.55-9.95-21.84-18.42-3.15-5.07-6.26-12.1 0.6-15.6zm-83.35 0.44c5.98-0.13 9.34 1.25 12.93 3.27q-0.15 0.45-0.3 0.89c-7.12 2.82-13.22 8.55-17.53 14.26-1.8 2.39-3.27 5.33-5.65 7.14q-0.29 0-0.59 0c-3.84-7.33 0.1-18.97 4.75-22.59 1.91-1.48 3.97-1.85 6.39-2.97zm-12.63 0.6q0.3 0 0.6 0 0 0.07 0 0.14-0.08 0.15-0.15 0.3c-6.55 2.39-12.12 11.39-8.47 20.21 0.67 1.61 1.94 2.66 2.82 4.01q0 0.07 0 0.15-0.29 0-0.59 0c-2.06-2.31-5.64-3-7.58-5.5-5.91-7.64-0.18-14.98 6.54-17.68q3.42-0.82 6.83-1.63zm146.34 0.29q0.3 0.15 0.6 0.3c-3.43 5.04-10.77 21.4-8.17 30.9q-0.15 0.15-0.3 0.3-0.22-0.15-0.45-0.3c-1.4-16.76 0.91-21.57 8.32-31.2zm-231.46 1.64c7.28-0.14 7.27 9.63 1.33 10.84-5.37 1.1-6.76-5.99-4.31-9.21 0.71-0.93 1.81-1.13 2.98-1.63zm115.73 4.6q0.52 0.08 1.04 0.15c4.76 11.28-10.12 23.17-21.1 20.21 0.05-8.56 6.99-15.76 13.08-18.43q3.49-0.96 6.98-1.93zm281.09 0.15c20.15-0.22 31.14 14.89 34.47 31.94 2.24 11.53-0.89 23.25-4.16 31.2-1.11 2.69-2.29 7.14-4.61 8.62 1.03-3.95 3.62-7.9 4.9-12.18 3.61-12.04 2.15-26.34-3.86-34.32-5.22-6.94-13.69-10.85-20.95-15.75-2.75-1.86-6.56-4.77-5.79-9.51zm-383.75 1.04c10.05-0.19 3.75 22.35 1.93 27.04-0.64 1.65-1 5.08-2.53 5.79 0.5-2.83 1.66-6.56 0.9-10.1-1.54-7.13-9.79-16.67-0.3-22.73zm342.74 1.34q-0.22 0.22-0.44 0.44 0.15 0.15 0.3 0.3c0.32-0.31 0.28-0.2 0.44-0.74q-0.15 0-0.3 0zm36.7 4.6q0.45 0.08 0.89 0.15 0 0.08 0 0.15c-1.14 6.55-7.5 8.08-12.03 11.29-2.57 1.82-4.9 4.4-6.54 7.13-1.54 2.57-2.78 7.36-1.93 11.59 0.28 1.41 1.85 4.38 1.49 5.05q-0.23-0.15-0.45-0.29c-1.15-2.9-3.12-5.46-4.01-8.77-3-11.1 2.85-20.43 10.25-23.32q6.16-1.49 12.33-2.98zm-75.77 0.75q0.45 0 0.89 0 0.15 0.22 0.3 0.44c-1.33 2.77-3.37 4.79-5.05 7.13-2.48 3.47-4.82 9.45-11.14 8.32-0.9-0.61-1.62-1.77-1.04-2.97 7.07-1.59 11.04-8.89 16.04-12.92zm-462.64 0.44q0.3 0 0.6 0-0.15 0.3-0.3 0.6c-17.69 5.18-23.15 16.28-32.69 29.26-6.74 9.19-19.12 19.09-31.79 22.14 0.89-2.34 7.66-6.69 9.51-9.66 2.5-4 3.11-9.96 5.05-14.41 3.64-8.34 11.18-16.36 19.46-20.05 5.24-2.34 11.22-4.07 17.39-5.5 3.79-0.88 9.61-0.5 12.77-2.38zm92.41 1.49c8.01-0.15 5.18 8.59 3.12 12.63-7.13 14.01-15.54 27.29-20.06 43.97q-0.29-0.07-0.59-0.15 0-0.07 0-0.14c2.18-3.99 1.62-12.65 2.53-17.83 2.6-14.92 3.63-32.35 15-38.48zm175.61 0.15c2.89 1.09 5.75 2.02 7.43 4.31 3.2 4.37 1.37 12.17-2.23 14.55-6.29 4.15-15.91-1.49-20.8-3.41-1.67-0.66-5.18-0.85-6.39-2.08q0-0.08 0-0.15c7.78 0.14 17.88-0.75 20.95-5.5 1.39-2.15 0.6-5.12 1.04-7.72zm-259.1 0.15q0.22 0.07 0.44 0.14-0.15 0.23-0.3 0.45c-6.89 2.21-16.88 12.96-17.53 21.39 1.64-0.6 5.82-8.72 7.28-10.54 4.08-5.11 11.02-7.56 17.83-9.96q0.15 0.15 0.3 0.3-0.15 0.22-0.3 0.44c-9.58 2.01-10.75 14.5-15.9 21.1-1.69 2.18-4.31 3.86-7.57 4.46-1.76 0.32-4.01-0.31-5.35 0.29-1.06 7.93-9.9 15.14-18.42 15.9q0.89-2.45 1.78-4.9c0.82-3.55 0.61-7.37 1.78-10.4 3.8-9.79 11.45-17.4 20.06-22.43 3.11-1.82 6.95-3.33 10.55-4.46 1.87-0.59 3.85-0.83 5.35-1.78zm125.83 0.59c13.57-0.15 21.9 16.73 16.64 30.6q-0.15 0-0.29 0 0-0.22 0-0.44c2.57-6.86-1.38-13.78-5.35-16.19-3.1-1.89-7.11-2.31-9.96-4.31-3.94-2.77-7.29-6.65-1.04-9.66zm272.77 0c9.98 0 5.44 9.21 1.49 12.18-8.2 6.17-19.69 7.71-32.54 9.36 0.98-2.53 5.48-4.78 7.58-6.39 6-4.59 11.55-9.97 18.57-13.52q2.45-0.81 4.9-1.63zm-460.11 1.19c4.3-0.09 15.66 0.88 17.68 2.52q-0.15 0.23-0.3 0.45c-9.1 2.28-15.01 8.06-22.73 11.44-3.76 1.65-9.54 1.12-13.67 2.82-3.54 1.46-4.1 4.63-6.68 6.84q-0.15-0.15-0.3-0.3c2.58-12.13 5.65-17.76 16.19-21.84 2.92-1.13 6.61-0.69 9.81-1.93zm107.86 0.15c6.63-0.02 8.27 4.45 10.7 8.61 4.31 7.42 6.61 16.35 8.32 26.45 1.16 6.9-0.42 17.1-4.16 19.91q-0.23 0-0.45 0c0.51-2.53 2.68-7.42 1.19-10.7-3.57 0.58-6.56 2.83-10.7 3.57-7.48 1.33-16.95-4.38-12.33-11.74q0.22 0.15 0.45 0.3c-0.07 7.16 5.67 9.63 12.77 7.42 3.93-1.21 6.44-4.74 7.13-9.21 1.59-10.14-10.99-17.38-14.85-22.88-3.28-4.66-2.3-9.01 1.93-11.73zm417.77 1.19c6.15 0.05 2.5 8.41 0.15 10.1q-0.22 0-0.45 0-0.37-4.61-0.74-9.21 0.22-0.37 0.45-0.75 0.29-0.07 0.59-0.14zm-154.81 0.14c7.65-0.13 11.76 5.96 16.2 9.36 4.44 3.42 9.18 7.33 14.56 9.66 2.52 1.09 5.42 1.46 7.87 2.38q-0.15 0.22-0.3 0.44c-14.81 4.89-26.8-1.4-35.65-8.32-3.78-2.95-10.56-9.93-2.68-13.52zm-406.77 0.75q0.22 0.15 0.44 0.29-3.27 2.83-6.54 5.65c-5.45 4.28-10.84 9.19-17.08 12.63q-0.08 0-0.15 0c0.63-1.71 3.62-3.48 4.9-4.76 3.6-3.59 7.52-7 11.74-9.95q3.34-1.93 6.69-3.86zm729.16 1.33c3.18-0.08 5.86-0.06 7.58 1.19 0.91 3.15-0.68 5.73-1.19 8.62-0.73 4.19 1.58 7.66 0.45 11.74-1.55 5.61-6.32 8.08-9.36 12.18q-2.38 4.31-4.75 8.62-0.15-0.15-0.3-0.3c1.04-3.65-1.52-7.71-2.53-10.25-3.53-8.9-7.19-19.79 0.45-27.34 2.72-2.69 5.67-2.79 9.65-4.46zm-182.14 1.64c1.94 0.95 2.77 2.3 2.68 5.35q-0.23 0.22-0.45 0.44c-1.13 0.13-2.14 0.09-3.12-0.15q-0.07-0.22-0.15-0.44c-0.78-1.73 0.28-4.39 1.04-5.2zm205.92 0.3c4.16 1.39 3.87 12.37 2.67 17.08-3.96 15.6-10.93 16.13-24.37 21.69 0.78-3.55 5.65-10.42 7.58-13.67 4.92-8.28 8.69-17.33 14.12-25.1zm-430.55 4.01c12.3-0.35 12.72 14.89 2.97 17.08-6.4 1.44-11.89-4.48-9.96-10.84 1.15-3.77 3.67-4.6 6.99-6.24zm300.55 3.41q0.22 0 0.44 0c5.52 5.43-0.15 18.11-2.52 22.59-7.85 14.85-18.51 25.46-33.58 33.13-2.77 1.41-5.97 3.42-9.21 4.16q0-0.08 0-0.15 2.38-1.19 4.76-2.38 3.49-2.15 6.98-4.31c8.42-5.96 16.44-13.76 21.99-22.58 3.25-5.17 5.75-11.14 7.42-17.83 1.2-4.77 0.75-9.75 3.72-12.63zm-419.56 1.93c2.37 1.22 0.33 9.16-0.14 10.7q0.07 0 0.14 0c3.34-2.77 4.39-6.68 10.11-7.28 7.69-0.81 5.98 8.61 2.52 11.29-5.12 3.98-12.2 4.11-19.76 5.95-9.2 2.24-21.74 7.94-24.06 16.64 1.68-0.5 2.56-2.2 3.86-3.12q4.01-2.31 8.02-4.61c12.03-5.19 23.69-2.26 27.93 8.17-1.09 1.28-5.75 0.6-7.58 1.04q-2.67 0.97-5.34 1.93-2.6-0.59-5.2-1.19c-6.42-0.81-12.72 4.01-13.37 9.07 3.59 3.3 11.12 6.98 17.97 4.16 2.42-1 2.85-4.14 4.46-4.76q0 0.15 0 0.3c1.94 4.83-4.5 8.57-9.66 7.72-6.91-1.12-10.63-3.2-14.41-7.27-0.03-7.46 7.57-13.57 16.05-12.19 4.03 0.66 6.99 1.69 11.58 0.89q0.08-0.44 0.15-0.89c-4.78-13.99-25.72-2.72-32.09 1.93-1.83 1.34-3.71 3.85-6.09 4.46 1.98-9.31 9.3-17.49 16.05-22.28 3.56-2.53 7.67-4.28 10.99-6.99 3.81-3.1 5.66-8.99 7.87-13.67zm-6.38 1.19q0.29 0.23 0.59 0.45c-1.28 4.79-7.64 6.41-11.14 9.06-2.55 1.93-5.19 4.62-6.98 7.28q-1.49 2.45-2.98 4.9-0.14-0.07-0.29-0.14 0-0.08 0-0.15 1.41-2.9 2.82-5.8c1.87-3.21 4.31-7.06 7.13-9.36 2.27-1.85 4.72-3.82 7.58-5.05q1.63-0.59 3.27-1.19zm88.54 1.79q0.3 0.14 0.6 0.29c-4.47 9.4 3.47 16.02 1.48 24.07-1.12 4.56-8.21 3.41-8.47 8.17q2.38 4.31 4.76 8.62c2.94 6.66 5.14 13.82 6.98 21.69 1.17 4.99 1.03 10.33 1.93 15.75 0.32 1.92-0.39 5.18 0.6 6.54q0.15-0.15 0.29-0.3c0.19-1.19 0.24-3.22 0.9-4.01 5.08 2.81 8.97 8.85 10.39 15.3q0.3 2.6 0.6 5.2 0.07 0 0.15 0 0.22-0.07 0.44-0.15 1.49-2.97 2.97-5.94c1.41-3.55 1.66-6.67 2.38-11.14 0.27-1.64 0.4-4.76-0.3-5.95-10.62-1.24-5.07-16.43 3.72-10.99 2.06 1.28 3.89 4.88 2.52 8.17q-0.66 1.04-1.33 2.08-0.45 4.46-0.89 8.91c-2.08 9.84-5.08 17.99-9.96 24.96-3.85 5.5-9.07 9.41-12.18 15.75q-0.3 0-0.59 0c-2.04-7.34-5.62-18.23-4.02-28.52 0.9-5.74 2.42-12.09 1.19-18.13-1.91-9.36-5.94-14.72-10.84-20.8-3.85-4.76-10.69-10.27-20.21-8.62q-5.5 1.27-10.99 2.53c-4.56 0.96-16.04-0.66-19.32 1.49-2.66 1.74-1.51 4.23-3.12 6.53q-0.14-0.22-0.29-0.44c-1.99-3.76-1.14-10.56 0.15-14.26 3.24-9.31 12.82-17.1 26.29-12.93 12.27 3.8 23.59 15.22 30.31 24.81q3.42 6.09 6.83 12.18 0.15-0.07 0.3-0.15c-0.83-15.01-5.8-26.67-11.74-36.69-1.7-2.88-3.38-6.31-5.94-8.32-3.37-2.66-7.32-5.33-11.44-7.13-1.46-0.64-4.68-1.11-5.35-2.53 4.59 0.91 9.48 2.69 13.52 4.46q2.53 1.26 5.05 2.52c-0.15-9.16 3.85-16.29 8.92-20.35q1.86-1.34 3.71-2.67zm353.44 0c12.1-0.15 16.87 11.66 18.58 22.13 0.81 5-0.82 16-2.83 18.13q-0.15-0.08-0.29-0.15 0-0.07 0-0.15c0.86-1.37 0.71-3.4 1.04-5.35 1.57-9.42-1.13-21.17-8.62-22.88-5.25-1.2-9.4 5.46-9.96 9.21q0.45 2.83 0.9 5.65-0.15 0.07-0.3 0.15c-5.02-1.73-11.09-10.03-8.17-17.53 1.86-4.78 5.07-7.06 9.65-9.21zm-236.07 0.74c7.09-0.16 11.11 3.88 16.34 5.94q5.28 1.41 10.55 2.82 2.08 0.3 4.16 0.6-0.07 0.15-0.15 0.3c-6.42 0.86-9.94 10.56-18.87 9.06-6.83-1.15-14.58-3.74-18.12-8.32-1.21-1.57-3-4.56-1.19-6.98 1.58-2.12 4.64-2.3 7.28-3.42zm94.04 0c6.38-0.18 13.39 1.41 13.23 7.72-0.05 1.98-1.13 3.39-2.38 4.16-7.17 4.43-22.21-3.46-28.23-5.34-1.26-0.4-9.28-1.41-9.8-1.79q0.14-0.15 0.29-0.29c1.76 0.35 4.54-0.62 6.24-1.04q6.39-1.27 12.78-2.53 3.94-0.45 7.87-0.89zm-558.31 3.56c14.11-0.25 26.88 5.76 22.88 20.95q-0.08 0.08-0.15 0.15c-4.07-0.48-8.16-3.16-9.06-6.83-0.5-2.01 0.9-4.84-0.15-6.54-1.22-1.97-4.45-3.08-6.99-3.71-6.8-1.69-17.16-1.29-24.36-0.15-1.6 0.25-6.74 1.14-7.43 0.15 5.98-0.04 11.55-2.17 17.09-3.27q4.08-0.37 8.17-0.75zm770.77 1.19c0.71 0.6 0.84 6.53 1.18 7.88 1.3 5.13 3.76 8.94 5.65 13.37q-0.07 0.15-0.15 0.3c-8.6 0.19-15.79-4.58-12.33-13.67 1.29-3.4 3.72-5.22 5.65-7.88zm-569.91 1.64c3.69-0.13 10.8 0.63 11.74 2.82-3.05-0.61-6.78-1.92-11-1.19-7.24 1.26-16.6 6.8-12.62 16.34 3.83 9.23 11.18 8.21 20.2 11.74 1.16 0.46 6.93 2.95 4.9 4.61-2.63 1.06-8.54-1.72-10.25-2.53-6.28-2.97-23.32-10.35-20.35-20.5 1.56-5.36 6.9-8.48 12.03-10.25q2.68-0.52 5.35-1.04zm195.96 0.15c3.74 0.91 11.26 10.3 7.73 15.74-2.9 4.47-9.88 5.34-15.01 7.58-3.86 1.69-6.68 5.05-10.25 6.69 0.58-1.86 2.74-2.92 3.86-4.31q2.6-3.42 5.2-6.84c2.23-3.41 3.79-7.59 5.35-11.58 0.97-2.48 1.57-5.36 3.12-7.28zm245.14 0.29c3.12 0.35 4.21 4.51 4.9 7.43 2.13 9.02-2.23 18.52-5.65 24.37-10.19 17.46-23.53 31.29-39.07 43.38-3.9 3.03-11.87 10.67-16.49 12.03q0-0.07 0-0.15 3.71-2.74 7.43-5.49 4.08-3.57 8.17-7.13 4.83-4.83 9.66-9.66 3.49-3.64 6.98-7.28c5.08-6.43 9.94-12.61 14.41-19.76 4.98-7.96 9.06-15.85 10.99-27.04 0.7-4.04-0.78-7.59-1.33-10.7zm-132.08 1.64q0.37 0.07 0.74 0.15c-0.24 3.25-3.42 5.88-4.75 8.46-3.56 6.91-6.04 15.02-12.48 19.02-3.77 2.35-11.06 3.63-14.11-0.44-2.83-3.78-0.33-9.21 1.63-12.04 7.12-10.26 18.98-8.76 28.97-15.15zm14.56 0.29c12.2 1.61 21.41 8.48 26.89 16.94 1.21 1.87 4.9 8.08 3.42 11.74q-0.15 0.22-0.3 0.44c-19.72 0.16-17.23-8.34-24.07-20.05-1.17-2.01-5.87-7.44-5.94-9.07zm-145.6 1.34q0.3 0.15 0.6 0.3c-3.67 11.54-7.69 21.76-10.7 33.72-2.52 10.01-3.59 20.56-5.2 31.5q-0.3-0.07-0.59-0.15 0.52-9.73 1.04-19.46c2.28-13.26 4.05-25.09 8.61-35.51 1.72-3.9 3.42-7.62 6.24-10.4zm137.13 1.64q0.3 0.14 0.6 0.29c-2.78 9.48 1.68 19.53 2.97 26.6 0.82 4.54-3.88 12.93-8.47 11.88-5.01-1.14-7.68-9.83-6.39-16.79 1.69-9.09 5.85-16.56 11.29-21.98zm4.01 0.14c2 1.07 3.31 4.84 4.61 6.69 4.25 6.03 11.4 12.98 5.64 22.43-1.01 1.68-1.87 3.32-3.41 4.46-4.2-0.85-2.87-5.46-3.57-9.66-0.82-4.99-5.64-17.87-3.27-23.92zm-471.85 1.49c3.14-0.05 4.3 0.82 5.5 2.67 4.45 6.86-2.03 9.59-1.34 14.86 2.89 3.62 6.52 7.74 1.64 12.33-0.93 0.88-2.35 2.02-4.61 1.49-8.91-2.09-8.29-12.72 1.19-13.97 0.69-0.92 3.36-4.36 1.19-5.64-0.6-0.27-0.97-0.07-1.34 0.29-0.9 0.68-0.63 2.49-1.63 2.98-0.5-1.93-2.06-2.95-2.97-4.46-2.13-3.53 0.27-8.81 2.37-10.55zm-73.54 2.08c0.87-0.05 1.78-0.05 2.23 0.3-1.14 4.35-1.57 8-3.56 11.29q-3.12 4.31-6.24 8.62-0.15 0-0.3 0 0.07-9.59 0.15-19.17 3.86-0.52 7.72-1.04zm857.39 1.34q0 9.73 0 19.46c-1.2 0.44-5.38 7.25-5.8 8.77q2.75-2.98 5.5-5.95 0.15 0.08 0.3 0.15 0 5.28 0 10.55c-21.43 2.3-13.59-32.31 0-32.98zm-781.47 0.59q-0.22 0.3-0.45 0.6c-0.03 1.33 0.2 2.63 1.04 3.12q0.38 0 0.75 0c0.43-1.07 0.39-2.85-0.15-3.72q-0.6 0-1.19 0zm-15.3 0.15c5.77 0.62 8.86 3.94 10.4 8.77 0.25 0.8 0.78 2.2 0.44 3.12q-0.22 0.37-0.44 0.74c-0.67-0.03-0.8-0.11-1.19-0.3-0.46-1.62-1.32-3.25-2.68-4.01q-0.29 0.07-0.59 0.15 0 0.07 0 0.15c0.34 2.41 1.51 3.96 2.53 5.64q-0.45 0.6-0.9 1.19-1.04-1.04-2.08-2.08-0.22 0-0.44 0 0 0.3 0 0.6 1.04 2.22 2.08 4.45-0.08 0-0.15 0c-3.1-2.14-11.96-4.81-10.84-10.55 0.24-1.28 1.2-2.16 1.48-3.12 1.01-3.45-1.63-3.17 2.38-4.75zm-68.49 32.24q0-5.57 0-11.14 2.15-2.08 4.31-4.16c3.76-3.04 7.62-6.39 10.55-10.25q2.15-3.2 4.3-6.39 0.15 0.07 0.3 0.15c0.04 3.99 0.9 7.65 0.15 11.44-1.84 9.29-9.47 19.66-19.61 20.35zm95.23-30.31c3.44-0.03 2.52 1.99 4.31 3.27 0.95 0.68 1.81 0.24 2.38 1.34q0.22 1.56 0.44 3.12c0.87 4.86-0.89 6.54-4.46 7.87-0.96 0.36-2.14 0.83-3.26 0.3-0.15-0.8-0.3-1.26-0.15-2.08 0.54-0.19 1.19 0.14 1.33-0.45q-0.52-0.07-1.04-0.15c-1.14 0.6-1.9 0.27-3.26 0.45-0.32 1.21 0.31 1.67 0.59 2.67q-0.3-0.07-0.59-0.14c-1.06-2.61-0.37-4.76-0.15-7.88q-0.23 0-0.45 0c-0.27 1.17-0.88 2.47-2.08 1.93-0.02-5.73 2.64-8.24 6.39-10.25zm-23.92 3.42c-0.8 0.63-1.28 0.8-1.34 2.23 0.34 0.86 0.66 1.41 1.49 1.78q0.44 0 0.89 0c1.09-0.47 1.51-1.86 1.19-3.27-0.68-0.46-1.03-0.72-2.23-0.74zm22.29 1.48q-0.67 0.67-1.34 1.34c-0.47 0.76-0.25 1.47 0.15 2.08 1.32 0.07 1.97 0.16 2.82-0.3 0.28-1.29-0.07-2.14-0.59-2.97q-0.15-0.07-0.3-0.15-0.37 0-0.74 0zm2.97 2.23q-0.3 0.45-0.6 0.89 0.08 0.3 0.15 0.6 0.08 0 0.15 0c0.66-0.3 0.71-0.39 0.74-1.34q-0.22-0.07-0.44-0.15zm-65.22 2.53q0.44 0.07 0.89 0.15c6 10.87 0.38 22.3-8.03 27.33-1.35 0.82-10.25 4.04-12.77 2.23q0.15-0.07 0.3-0.15c1.81-0.67 4.23-0.41 6.09-1.19 9.83-4.11 13.6-14.06 13.52-28.37zm64.18 0.15c-0.11 0.7-0.25 0.66 0.29 1.04q1.19 0.29 2.38 0.59 0.08-0.07 0.15-0.15 0-0.29 0-0.59-0.22-0.08-0.45-0.15-1.18-0.37-2.37-0.74zm-14.56 0.15c0.45 0.28 0.24 0.03 0.44 0.59q-0.07 0.07-0.15 0.15-0.29 0-0.59 0 0-0.3 0-0.6 0.15-0.07 0.3-0.14zm91.22 0.14c9.79 1.94 16.71 8.71 20.05 17.24q1.71 6.39 3.42 12.77c0.84 2.4 5.17 10.63 4.46 12.48q-0.08 0-0.15 0c-6.17-0.53-8.95-4.42-9.95-10.1q-0.08-6.31-0.15-12.63c-0.88-4.42-2.74-7.97-5.05-10.99-1.91-2.49-4.68-4.76-7.58-6.24-1.35-0.69-4.42-1.14-5.05-2.53zm295.8 1.49c10.38-0.18 16.43 3.83 20.94 9.51 1.02 1.27 2.79 2.44 3.27 4.16q-0.15 0-0.29 0c-8.4 4.15-22.9 3.45-28.53-2.23-1.37-1.38-4.29-5.22-2.97-8.47 1.28-2.47 4.82-1.87 7.58-2.97zm314.36 0.45q0.52 0.07 1.04 0.14-0.29 2.98-0.59 5.95-3.49 1.33-6.98 2.67c-5.42 2.75-10.15 6.2-14.71 9.81-13.4 10.59-24.74 24.65-32.83 40.56-3.66 7.19-6.66 15.96-5.35 26.44q-0.3-0.07-0.6-0.15c-4.25-15.67 1.3-28.97 7.73-39.22 9.6-15.32 22.12-30.24 37.44-39.82 3.1-1.93 6.55-3.65 10.1-5.05q2.38-0.67 4.75-1.33zm-135.64 1.04c4.55 2.28 6.86 19.72 2.97 25.1-0.6 0.84-6.26 4.28-7.28 2.83 2.22-4.7 0.35-7.32 1.19-12.78 0.83-5.34 0.93-11.03 3.12-15.15zm-646.71 19.75c13-0.89 20.01-10.16 24.66-19.46q0.3 0 0.59 0 0 0.15 0 0.3c0.81 1.66 0.95 5.17 0.6 7.28-1.45 8.63-4.32 15.03-12.78 16.49-6.03 1.04-9.51-2.05-13.07-3.42q0-0.59 0-1.19zm796.62-19.31c10.26 1.53 17.96 7.43 20.5 16.79 2.44 9-1.82 18.26-5.5 23.32-0.95 1.31-1.74 3.63-3.41 4.16 0.46-1.81 1.77-3.66 2.37-5.64 2.2-7.2-0.31-14.97-3.12-19.46-3.27-5.23-13.46-9.55-10.84-19.17zm-155.26 0.45q0.23 0 0.45 0-0.97 4.83-1.93 9.65c-0.72 4.54 1.63 8.08 0.74 12.19-0.31 1.45-1.7 3.78-3.42 3.26-1.58-0.77-2.47-3.01-3.26-4.6-4.9-9.76 1.76-16.16 7.42-20.5zm-578.52 0.74c4.28-0.11 6.3 1.21 8.62 2.97 0.06 1.01 0.17 1.55-0.15 2.23-0.83 0.13-1.48 0.24-1.93 0.74q0.22 0.3 0.45 0.6 1.04 0.15 2.07 0.29-0.07 0.15-0.14 0.3c-1 0.24-2.76 0.54-3.12 1.49 1.46-0.05 2.42-0.01 3.71 0.15q-0.07 0.29-0.15 0.59c-3.31 1.1-8.57 5.33-12.77 2.53-0.59-4.22-0.8-2.21-2.23-4.46-3.12-4.92 3.05-6.36 5.64-7.43zm5.95 3.57q-0.15 0.07-0.3 0.14 0 0.3 0 0.6c0.97 0.15 1.53 0.09 2.23-0.3q-0.08-0.15-0.15-0.3-0.89-0.07-1.78-0.14zm25.7 0.14c5.66-0.21 13.24 1.9 9.51 8.03q-1.12 0.15-2.23 0.29-0.37 0.82-0.75 1.64 0.97-0.45 1.94-0.89 0.07 0.07 0.14 0.15 0 0.29 0 0.59c-2.14 4.45-9.04 0.87-10.54-1.63q-0.38-1.86-0.75-3.72 0.3-0.37 0.6-0.74 1.41 0.22 2.82 0.44 1.11-0.96 2.23-1.93 0-0.22 0-0.44c-2.22-1.48-3.96-0.29-5.5 0.74q0-0.07 0-0.15c0.64-1.15 1.48-1.65 2.53-2.38zm-20.51 0.6q0.3 0 0.6 0c-0.23 1.16-0.97 2.08-1.78 2.67q-0.08 0-0.15 0 0.67-1.33 1.33-2.67zm90.93 2.08c9.41 0.02 4.09 5.69 6.39 11.59 2.23 5.74 7.78 6.48 14.56 5.49q0 0.3 0 0.6c-3.71 3.26-4.74 5.73-11 6.83-3.17 0.56-6.31-0.65-8.32-1.48-11.36-4.72-14.13-17.23-1.63-23.03zm83.94 0.74c13.58-0.35 14.55 16.62 4.01 19.02-7.31 1.66-13.76-5.1-11.14-12.63 1.23-3.54 3.79-4.87 7.13-6.39zm195.51 0c9.82-0.21 14.69 3.76 20.95 6.98q3.64 1.41 7.28 2.83-0.15 0.14-0.3 0.29c-1.82-0.42-4.34 0.37-5.94 0.75-4.53 1.05-8.87 1.83-12.92 3.41-2.6 1.02-5.11 2.41-8.18 2.97-6.18 1.14-14.15-3.33-14.7-8.02 1.71-3.36 5.33-6.55 8.91-8.02q2.45-0.59 4.9-1.19zm210.38 0q0.29 0.15 0.59 0.3c0.64 4.71 0.55 8.77-2.67 11.14q-0.23 0-0.45 0 0-0.37 0-0.74c0.94-3.96 0.12-8.33 2.53-10.7zm-561.29 2.08q-0.37 0.22-0.75 0.45c0.07 2.12 2.92 3.62 4.61 2.52q0.45-0.96 0.89-1.93c-1.89 0.79-3.28-0.55-4.75-1.04zm132.82 0.15c4.38-0.11 10.3 0.11 12.92 2.08q-0.15 0.15-0.3 0.3c-4.1-1.17-9.31 0.29-12.18 1.48-12.07 5.02-12.3 12.26-15 26.45q-0.23 0.07-0.45 0.15c-1.14 0.32-2.96-0.46-3.86-0.9-4.79-2.32-6.66-8.55-4.01-14.7 2.82-6.56 9.22-11.42 16.34-13.67q3.27-0.6 6.54-1.19zm32.68 0.74c14.48-0.18 17.65 19.29 34.77 12.33 2.65-1.08 5.06-2.92 6.68-5.05 0.82-1.07 1.21-2.53 2.38-3.27q0.3 0.23 0.59 0.45c1.65 9.85-4.58 18.57-14.85 15.45-8.63-2.61-14.17-8.99-20.95-13.52-2.56-1.71-7.36-3.28-8.92-5.94q0.15-0.22 0.3-0.45zm-180.06 0.45c-0.16 1.47-0.87 1.73-1.04 3.27 0.34 0.47 0.25 0.5 1.04 0.59 1.04-0.61 1.4-1.58 2.23-2.38q0.14 0.15 0.29 0.3c-1.02 6.68-0.66 11.2-8.02 11.59-1.21 0.06-2.12 0.88-3.27 0.44-4.9-2.21 1.01-12.17 3.72-12.62-0.02 0.88 0.02 1.08 0.44 1.48 1.53-0.91 2.36-2.5 4.61-2.67zm11.29 0.15q0.44 1.11 0.89 2.23c2.39 4 5.62 7.25 2.23 12.92-0.61 1.01-0.83 2.04-2.08 2.38-8.2 2.21-10.95-10.28-6.24-13.97 1.5 0.52 1.58 1.72 2.67 2.53q0-0.23 0-0.45c-0.51-1.16-1.24-2.87-0.89-4.45q0.08 0 0.15 0c1.47 0.68 1.57 3.46 1.93 5.19q0.3-0.07 0.6-0.14c0.05-2.05 0.16-4.66 0.74-6.24zm-45.17 2.23q0.23 0 0.45 0c4.48 3.59 5.79 13.86 2.53 19.75-4.77 8.61-13.07 10.98-25.56 9.66q-0.07-0.15-0.15-0.3 0-0.07 0-0.14 0.08-0.08 0.15-0.15c2.53-0.19 4.28-1.45 6.09-2.38 9.22-4.71 16.59-12.5 16.49-26.44zm452.69 0.44c31.51-0.53 48.53 22.66 57.35 45.17 2.4 6.13 4.3 13.1 4.3 21.54 0.01 2.41 0.7 7.36-0.44 8.91q-0.08 0-0.15 0 0-0.15 0-0.3-0.59-3.78-1.19-7.57-1.63-6.99-3.27-13.97c-4.78-15.23-14.8-31.25-26-40.11-5.59-4.43-11.77-8.21-19.01-11-1.49-0.57-11.26-2.26-11.59-2.67zm-12.18 2.53c4.09-0.07 7.72 0.23 10.55 1.48 6.33 2.8 13.92 14.07 8.46 23.18-10.5 2.56-17.82-4.11-20.65-11.29-1.68-4.28-1.68-10.89 1.64-13.37zm-409.16 0.14q-0.37 0.38-0.74 0.75c-0.52 0.78-0.69 2.3 0.15 2.82q0.44 0 0.89 0 0.59-0.59 1.19-1.19c0.41-0.69 0.22-1.32 0-2.08q-0.23-0.07-0.45-0.15-0.52-0.07-1.04-0.15zm784.14 0.75q0.3 0 0.6 0-1.34 2.23-2.68 4.45c-4.53 7.21-10.28 13.04-20.5 14.56-4.59 0.69-6.15-2.49-9.21-3.12-2.93-0.59-4.75 1.24-6.54 1.79q0-0.23 0-0.45c4.19-10.43 11.7-13.79 24.07-16.04q7.13-0.6 14.26-1.19zm-382.56 1.19q0.22 0.07 0.45 0.14c-0.48 2.47-1.97 5.13-1.19 8.47 1.16 5 4.84 7.76 6.68 12.04 4.02 9.3-0.01 17.87-5.94 21.99-8.78-3.01-16.86-13.99-13.07-26.45 2.43-8.01 6.51-12.29 13.07-16.19zm103.11 0.14c1.33 0.33 2.22 0.43 3.12 1.04 0.95 3.39-1.42 5.08-2.83 6.99-3.1 4.21-5.56 8.38-8.32 13.07q-0.37-0.15-0.74-0.3-0.82-3.19-1.63-6.38c-1.09-6.62 2.68-11.97 6.68-13.67q1.86-0.37 3.72-0.75zm283.76 0.15q0.22 0 0.45 0 0 0.37 0 0.75-0.08 0-0.15 0-0.23-0.15-0.45-0.3 0.08-0.22 0.15-0.45zm-83.2 1.49c2.51-0.07 4.64 0.01 6.09 0.89q0.08 0.22 0.15 0.45c-0.82 4.77-6.68 7.43-9.95 9.95-3.75 2.9-6.48 7.23-9.07 11.29q-0.44-0.15-0.89-0.3c-2.26-8.57 2.1-16.88 7.28-20.05 1.92-1.18 4.07-1.27 6.39-2.23zm-659.64 0.89c2.77 0.85 5.54 4.35 7.73 6.09 7.55 6 17.86 17.93 14.26 33.28-2.75 11.76-10.18 20.49-6.09 35.66-2.52-0.85-4.68-4.87-6.09-6.99-3.55-5.31-5.75-10.28-6.99-18.27-1.54-9.99 3.22-19.72 1.79-29.27-0.59-3.95-0.31-7.88-1.19-11.44-0.83-3.34-2.53-6.28-3.42-9.06zm115.29 1.04c1.9-0.06 3.79-0.06 4.9 0.59q0.08 0.52 0.15 1.04c-0.86 1.65-2.54 2.39-3.71 3.72-1.94 2.18-3.96 4.43-5.5 6.98q-1.04 2.75-2.08 5.5 0 2.15 0 4.31-0.3-0.3-0.59-0.6c-3.41-6.22 2.03-12.15 3.12-16.49q-0.08-0.07-0.15-0.15c-7.16 0.05-12.89 6.76-15.16 11.89q-1.18 3.42-2.37 6.83-0.15-0.07-0.3-0.15c1.28-10.41 6.55-18.01 14.56-21.54 2.16-0.95 4.69-0.94 7.13-1.93zm-149.01 1.49q-0.3 0.22-0.6 0.44-0.15 0.74-0.29 1.49 0.14 0.15 0.29 0.29 0.97-0.07 1.93-0.14 0.08-0.38 0.15-0.75c-0.5-0.62-0.64-1.02-1.48-1.33zm603.03 1.04c10.35-0.22 16.26 3.13 22.14 7.28 2.23 1.57 6.2 4.03 5.64 7.72-0.65 0.94-1.66 1.63-3.12 1.34-4.06-8.15-14.69-17.12-27.93-11.74-4.59 1.87-7.81 5.2-11.58 7.88-5.89 4.17-16.07 8.49-26.3 6.53q0-0.07 0-0.15c6.97-7.09 15.71-12.08 26.15-15.74q4.97-1.27 9.95-2.53 2.53-0.3 5.05-0.59zm-99.09 0.29c4.17-0.1 7.4 1.09 9.95 2.68q0 0.22 0 0.44c-5.93 4.13-12.77 6.1-17.68 11.15-1.85 1.9-3.89 6.93-6.98 7.28q-0.15-0.15-0.3-0.3c-1.26-12.54 6.49-17.7 15.01-21.25zm-127.18 0.15q0.23 0 0.45 0c-0.45 1.28-1.9 1.84-2.67 2.82-1.95 2.49-3.52 5.63-4.16 9.36-0.85 4.93 1.27 9.11 1.93 13.23 1.42 8.92-4.12 18.63-11 19.16q-0.07-0.07-0.15-0.15-0.37-3.04-0.74-6.09-0.3 0-0.59 0c-3.29 2.66-8.27 5.37-14.12 4.01-2.49-3.89 0.25-11.7 1.94-14.56 3.11-5.27 8.92-7.42 12.62-12.03 2.99-3.71 5.63-8.79 9.36-11.74 1.98-1.56 5.29-2.24 7.13-4.01zm-206.21 0.15q1.56 1.63 3.12 3.27c2.85 2.2 6.48 4.03 9.96 5.5q4.83 1.41 9.65 2.82 2.6 0.52 5.2 1.04c1.73 1 3.21 4.18 1.79 6.54-0.89 1.47-3.51 3.94-6.24 2.97-2.71-0.97-4.52-4.13-6.69-5.8-5.73-4.4-15.54-7.71-16.79-16.34zm-258.5 0.15q0.29 0 0.59 0c4.32 11.17 15.02 18.21 24.66 24.22q2.6 1.7 5.2 3.41-0.07 0.3-0.15 0.6c-17.71 0.27-28.38-12.29-30.3-28.23zm245.13 1.04q0.15 0 0.3 0c0.2 5.9-3.06 12.2-5.05 16.79-5.75 13.19-14.67 28.5-25.26 36.84-3.9 3.07-9.38 8.08-16.04 7.58q0-0.08 0-0.15c3.65-4.6 8.49-7.31 11.73-12.78 1.57-2.64 2.89-5.8 3.87-8.91q0.81-2.97 1.63-5.94 0.22 0.07 0.45 0.15c0.64 1.61 1.74 3.01 2.22 4.9q0.38 2.97 0.75 5.94 0.22-0.07 0.44-0.15 2.16-2.89 4.31-5.79 3.79-5.94 7.58-11.89 4.31-8.17 8.61-16.34 2.23-5.13 4.46-10.25zm8.02 0.89c2.16 1.11 4.41 7.87 5.8 10.25 1.75 3.01 3.67 5.96 5.79 8.62q2.9 2.75 5.8 5.5 0 0.22 0 0.44c-2.51 0.05-4.99 0.23-6.99-0.59-6.37-2.62-9.88-15.65-10.4-24.22zm536.48 2.08c2.07-0.04 3.75 0.21 5.35 0.59q0.37 0.6 0.74 1.19c-2.78 6.64-11.69 7.71-18.27 10.55-2.53 1.09-4.64 2.87-6.84 4.16 1.12-3.91 8.82-12.37 12.19-14.41 2.03-1.23 4.33-1.1 6.83-2.08zm72.35 0.15q0.23 0 0.45 0c-1.37 6.29-9.33 18-13.97 21.24-3.14 2.2-8.38 2.25-10.69-0.89-2.53-3.43 0.06-7.25 2.08-9.21 3.83-3.72 9.98-6.2 15.3-8.32 2.26-0.9 5.1-1.36 6.83-2.82zm-167.13 3.27c9.63-0.23 12.45 3.87 17.53 7.87 1.32 1.05 4.82 2.87 4.01 5.35-1.59 3.81-8 5.24-12.63 3.42-6.35-2.51-11.04-9.59-14.86-14.71q0.08-0.22 0.15-0.45 2.9-0.74 5.8-1.48zm-75.77 0.29c6.31-0.13 14.41 3.77 10.1 10.4-2.41 3.71-5.19 0.99-9.06 2.53-4.73 1.88-3.12 4.09-4.76 7.73q-0.37-0.3-0.74-0.6-0.97-2.15-1.93-4.31c-1.51-5.53 0.57-12.36 3.56-14.56q1.41-0.59 2.83-1.19zm-20.06 1.49c2.09-0.04 3.76 0.2 5.35 0.59q0.07 0.23 0.15 0.45c-1.87 5.76-5.03 11.9-11 13.67-4.18 1.23-11.25-0.11-11.59-3.72 1.93-3.21 9.55-8.38 13.23-9.95q1.93-0.52 3.86-1.04zm-539.3 5.65c8.37-0.17 12.78 2.78 18.72 4.9q-0.08 0.3-0.15 0.59c-10.15 0.41-17.62 10.77-19.61 19.76-0.47 2.13 0.15 11.89 0.15 11.89-8.74-3.18-20.31-10.12-15.45-23.62q1.56-2.98 3.12-5.95c1.94-2.66 5.18-5.1 8.47-6.39q2.37-0.59 4.75-1.18zm728.87 0.14c3.46-0.07 6.99 0.62 9.21 1.94q0 0.22 0 0.44-2.97 1.19-5.94 2.38c-3.9 1.94-9.14 6.49-15.01 5.5 0.49-4.15 4.72-7.96 8.03-9.36q1.85-0.45 3.71-0.9zm-428.32 0.3c7.38 2.74 16.1 9.01 18.28 16.94 1.37 4.99 0 11.5-0.75 16.19-0.56 3.52 0.16 7.34 0.3 10.55-3.01-0.63-5.71-2.44-8.02-3.86-12.51-7.69-18.53-22.97-9.81-39.82zm-46.2 3.72c16.15 1.2 28.56 13.19 21.39 30.9-4.42 10.92-13.39 17.45-23.62 22.58q-0.08-0.22-0.15-0.45c7.23-3.08 13.85-10.56 15.75-19.01 3.99-17.76-15.35-29.98-31.8-24.07 0.99-3.02 8.76-7.86 12.04-8.91 1.87-0.6 4.36-0.26 6.39-1.04zm363.24 4.3c4.47-0.18 10.49 2.77 7.88 7.14-4.49 1.32-10.45 1.52-15.16 2.97-3.04 0.93-5.31 2.66-7.87 4.01q-0.15-0.08-0.3-0.15c0.69-6.9 5.84-10.78 11.29-12.93q2.08-0.52 4.16-1.04zm-482.39 0.3c5.56-0.14 12.48 0.33 15.3 3.12q-0.15 0.15-0.3 0.3c-3.87-1.32-9.43 0.78-12.18 1.93-15.66 6.56-15.39 23.3-7.28 37.29q0 0.07 0 0.15c-13.8-1.81-25.79-17.75-16.49-32.39 2.99-4.71 8.7-7.67 14.71-9.36q3.12-0.52 6.24-1.04zm-117.08 1.04c7.87-0.16 15.38 5.05 10.7 12.78-2.82 4.66-7.88 7.49-12.48 10.4-1.18 0.74-6.43 4.2-7.57 3.86-3.19-1.6-4.83-8.7-3.57-13.37 2.27-8.4 5.61-10.32 12.92-13.67zm169.52 0.89c15.59-0.24 23.21 14.1 15.3 27.49-6.18 10.47-17.53 14.37-28.08 20.5q-7.28 3.94-14.56 7.87 0-0.07 0-0.14 4.39-2.9 8.77-5.8c7.81-5.58 15.9-12.82 19.76-22.28 2.51-6.17 3.45-21.25-6.84-19.32-2.91 0.55-3.96 2.23-6.09 3.12 1.1-4.81 3.85-8.77 8.03-10.55q1.85-0.44 3.71-0.89zm544.35 0.89c1.95 0.71 2.43 6.39 1.93 9.07-1.08 5.82-4.23 10.11-9.06 12.18-14.72 6.31-26.95-9.61-42.04-3.72-5.68 2.22-10.11 6.82-12.48 12.34q-0.82 2.52-1.64 5.05-0.15-0.15-0.3-0.3 1.04-4.01 2.08-8.02c2.85-7.05 8.64-13.46 16.64-15.3 7.29-1.68 14.14 1.22 20.36 2.22 2.63 0.43 5.53-0.18 7.57-0.59 9.09-1.82 14.53-4.52 16.94-12.93zm-676.43 1.04q0.23 0 0.45 0c-0.73 19.69 7.31 32.91 16.19 43.98q5.87 5.57 11.74 11.14 2.38 1.93 4.75 3.87 0 0.07 0 0.14-3.56-1.93-7.13-3.86c-12.37-7.36-21.59-17.54-27.33-31.5-3.39-8.22-3.45-17.2 1.33-23.77zm165.51 2.23c4.33-0.17 10.33 2.48 8.47 6.54-6.03 1.95-10.73 6.83-12.33 13.22-0.41 1.64-0.15 7.77-0.6 8.47q-0.22-0.15-0.44-0.3-1.12-3.19-2.23-6.39c-1.54-6.17-0.85-16.46 2.97-19.61 1.22-1.01 2.54-1.21 4.16-1.93zm14.71 0c10.56 1.33 16.65 14.32 11.88 25.85-3.32 8.02-12.33 11.91-23.62 11.44q1.78-1.85 3.56-3.71c3.12-3.87 6.19-7.77 7.58-13.37 1.66-6.69-3.9-15.28 0.6-20.21zm533.65 1.04c15.53-0.23 21.06 11.92 27.93 20.5q2.9 2.6 5.8 5.2 1.04 0.52 2.08 1.04 0 3.05 0 6.1c-2.99-0.91-5.36-4.28-7.14-6.54-4.7-5.99-14.81-21.57-26.44-19.46-4.75 0.86-8.08 3.22-11.29 5.64-1.34 1.01-2.53 2.8-4.31 3.27q-0.07-0.07-0.15-0.15c-0.03-7.03 4.01-12.29 8.91-14.41q2.31-0.59 4.61-1.19zm-217.06 0.45q0.3 0 0.6 0c-0.67 2.03-5.91 6.05-7.58 7.72-5.23 5.23-13.4 13.44-15.9 20.95q2.08-2.75 4.16-5.5c4.24-5.29 10.86-9.53 18.72-11.14 11.7-2.39 20.08 4.13 24.22 10.55 1.18 1.83 4.19 6.81 2.82 9.81q-1.41 0.37-2.82 0.74c-1.04-12.26-13.42-20.57-26.74-15.16-12.01 4.89-19.09 16.12-24.81 27.34-1.3 2.54-6.61 15.73-8.32 16.49 2.53-18.66 7.77-33.55 16.49-45.91 2.06-2.92 4.07-6.11 6.83-8.31 3.8-3.03 8.05-4.85 12.33-7.58zm74.73 1.78c5.12-0.18 7.06 4.47 4.31 8.17-4.29 5.8-14.64 3.52-19.46 0-0.87-0.63-1.92-0.86-2.23-2.08q3.49-1.85 6.98-3.71 5.2-1.19 10.4-2.38zm-153.76 0.15c4.06 0.02 7.11 2.9 8.02 6.09 1.41 4.99-1.64 11.55-6.39 10.7-1.47-4.02-1.66-12.35-1.63-16.79zm124.2 0.74q0.22 0.08 0.44 0.15c1.28 5.81 3.16 10.59 6.24 14.56q3.2 3.57 6.39 7.13c0.75 1.2 3.02 6.71 0.3 7.58-1.82 0.58-4.47-0.25-5.65-0.6-10.76-3.12-9.7-17.32-7.72-28.82zm-86.47 0.15c5.77-0.19 10.42 2.93 12.04 6.84 1.53 3.72-2.16 8.38-5.35 7.72q0-0.07 0-0.15c0.73-1.86 2.44-6.01-0.3-7.28-2.46-0.79-4.51 0.4-5.94 1.49-6.53 4.94-4.95 14.5-2.38 21.99q-0.07 0-0.15 0c-3.67-3.03-8.46-17.95-5.35-24.96 1.48-3.32 4.08-4.11 7.43-5.65zm-52.29 0.6c8.59-0.1 11.75 10.01 10.1 19.16q-0.52 3.19-1.04 6.39c-1 1.36-4.99 0.32-6.98 0.74-2.56 0.54-3.49 2.41-5.2 3.72q-0.3 0-0.6 0c-3.45-4.88-8.69-7.77-10.55-14.42-1.23-4.42 1.52-10.12 4.76-10.99q0.07 0.08 0.15 0.15c-0.07 7.36 1.68 14.78 5.34 18.57 1.03 1.06 2.91 3.53 5.35 2.53 2.39-1.38-0.79-6.91-1.48-8.03q-1.93-2.52-3.87-5.05c-3.35-5.47 0.13-10.71 4.02-12.77zm147.08 5.79c2 0.43 3.55 2.44 5.2 3.42q5.2 2.15 10.4 4.3c2.29 0.73 6.19 1.19 7.43 2.98 0.97 1.41 0.34 4.56-0.45 5.64-1.93 2.64-7.08 3.29-10.7 1.78-5.76-2.39-8.7-8.35-10.84-14.41-0.38-1.07-1.23-2.59-1.04-3.71zm-665.88 8.62q0.59-3.2 1.19-6.39 0.37 0 0.74 0c7.27 2.66 14.91 4.01 23.62 5.49q8.32 0.67 16.64 1.34c4.61 1.18 8.11 3.92 12.48 5.2 10.19 2.99 20.87 3.71 30.61 6.69 21.25 6.51 38.57 14.98 54.07 26.89 6.24 4.78 12.19 9.79 17.09 15.89 1.63 2.03 5.1 4.29 5.79 6.99q-0.22-0.08-0.44-0.15c-3.43-4.65-8.51-8.36-13.22-11.74-18.98-13.59-41.3-22.14-66.56-29.86q-10.85-3.05-21.69-6.09c-2-0.62-6.11-2.71-8.17-1.78-2.04 4.35-14.85-0.21-16.94-1.79-1.07-0.8-1.22-2.45-2.23-3.27q-5.2-1.18-10.4-2.37c-7.07-1.99-14.55-4.48-22.58-5.05zm830.04-2.98c8.95-0.17 14.94 2.33 19.17 6.84q-0.22 0.3-0.45 0.59c-8.83 3.72-11.13 17.34-20.94 22.29-2.68 1.34-8.28 3.33-12.19 1.78-11.18-4.44-5.32-22.25 1.34-27.04 2.3-1.66 5.55-2.94 8.62-3.71q2.23-0.37 4.45-0.75zm34.77 1.94c0.52 0.35 0.53 0.4 0.15 0.89q-0.08 0-0.15 0-0.07-0.23-0.15-0.45 0.08-0.22 0.15-0.44zm-456.1 0.59c0.67 0.75-0.41 3.53-0.75 4.61q-2.08 6.46-4.16 12.92c-6.33 17.98-7.37 42.08-10.4 62.99q-0.07 0-0.14 0 0.81-14.85 1.63-29.71c1.52-9.95 0.47-19.98 2.97-28.52 2.5-8.55 6.86-15.24 10.85-22.29zm81.71 0.89c2.83 0.39 7.48 5.61 9.8 7.28q3.35 2.08 6.69 4.16 0 0.22 0 0.45c-3.79 2.48-4.8 4.06-6.24 9.06q-0.3 0-0.59 0c-6.16-5.26-12.79-9.03-9.66-20.95zm122.12 7.28c7.25-0.14 15.24 4.64 13.82 12.63-0.7 3.91-2.21 6.45-3.86 9.21q-0.3 0-0.6 0-0.07-0.07-0.15-0.15c-0.21-7.93-6.6-13.51-15.3-10.84-5.69 1.74-10.16 5.89-12.03 11.44q-0.3 0-0.6 0c-0.19-10.89 4.59-17.51 12.33-20.8 1.92-0.82 4.25-0.65 6.39-1.49zm-75.92 0.3c8.05-0.12 13.24 2.35 18.13 5.35 13.48 8.25 25.07 28.43 19.16 51.85-1.51 6.01-3.44 11.44-5.94 16.34-1.97 3.86-9.37 16.78-12.92 17.83q0.52-0.6 1.04-1.19 3.04-4.9 6.09-9.81c6.44-11.02 12.01-34.47 5.94-50.06-2.83-7.28-8.07-16.41-16.05-18.43-2.14-0.54-4.67 0.24-6.53 0.6-5.76 1.1-10.58-0.79-13.67-3.27-1.09-0.87-1.62-2.02-1.93-3.71-0.81-4.36 3.64-4.34 6.68-5.5zm-536.62 0.74q2.38 1.41 4.75 2.82c3.64 2.13 8.17 3.64 12.63 4.76q5.94 0.96 11.89 1.93-0.15 0.15-0.3 0.3c-8.95 1.75-24.33 0.65-28.97-4.01q0-2.9 0-5.8zm855.9 1.19c1.7 1.76 0.6 8.17 0 10.1-2.15 6.82-6.54 11.29-13.52 13.23-3.13 0.86-8.51 0.68-9.96-1.49-1.41-2.12 0.36-5.45 1.64-6.39q4.68-2.23 9.36-4.46c4.82-3 8.46-7.18 12.48-10.99zm-409.75 0.74c20.18-0.23 29.94 11 35.8 24.96 1.66 3.96 2.82 8.7 2.82 14.12 0.01 1.58 0.51 5.08-0.59 5.64 0.24-11.16-6.55-21.98-13.67-25.7-4.68-2.44-13.46-1.24-16.04 2.38q0.22 0.15 0.44 0.29 2.08 0.3 4.16 0.6c3.39 0.85 12.09 3.99 13.08 6.68q-2.31-1.26-4.61-2.52c-2.7-1.07-6.43-1.56-9.95-1.64q-2.75 0.08-5.5 0.15c-1-0.18-2.42-0.75-3.86-0.44-5.66 1.2-6.81 9.31-14.56 8.47-2.67-0.3-3.72-1.77-5.95-2.08-4.63 2.94-6.1 2.66-8.46 8.17q-0.3 0-0.6 0c-10.38-14.59 5.54-31.47 16.64-36.25q3.49-1.12 6.98-2.23 1.93-0.3 3.87-0.6zm318.67 1.19c9.51-0.16 12.98 6.74 10.55 16.05-2.41 9.27-8.92 21.7-16.04 26.14q-0.08 0-0.15 0 0-0.29 0-0.59c1.31-3.7 2.6-6.95 3.42-11.14 0.21-1.12 0.53-4.07-0.3-4.61-1.4 5.77-4.35 11.35-7.28 15.75-0.67-0.13-0.44 0.02-0.74-0.45-1.31-2.96-3.08-13.55-4.76-15.15-1.05 0.86-1.27 2.29-1.63 3.86-1.47 6.27 2.55 8.4 3.86 12.33-10.23-2.24-16.29-12.54-18.27-23.17-1.12-5.98-0.61-13.67 2.97-16.34 4.07-3.05 11.43-1.28 16.49-0.45 2.99 0.49 9.65-1.35 11.88-2.23zm-242.76 2.82c7.64-0.22 11.3 12 4.16 14.12-3.77 1.12-8.91-5.71-7.87-9.96 0.48-1.96 2.31-3.07 3.71-4.16zm-151.68 4.91c10.25-0.2 14.58 6.1 16.04 14.85 0.75 4.45-0.96 15.61-3.56 16.49q-0.08-0.22-0.15-0.44 0.07-2.3 0.15-4.61c0-5.16-0.75-8.73-2.97-11.58-5.76-7.39-8.71 1.8-13.67-1.04-3.21-1.84-4.94-8.81-1.34-11.59 1.57-1.22 3.41-1.23 5.5-2.08zm237.11 2.67c6.06-0.19 14.99 3.65 10.25 10.1-4.08 5.57-19.9 3.25-20.05-3.71 2.38-4.92 4.72-4.32 9.8-6.39zm115.59 0.3c2.56 1.46 7.05 16.83 9.21 20.5 2.45 4.18 6.05 7.96 9.8 10.85 1.89 1.45 4.57 2.67 5.8 4.75q-0.08 0.3-0.15 0.59c-5.71 0.01-8.52-1.62-12.93-2.52-7.48-1.53-14.73 1.06-18.87 4.01-3.05 2.18-5.42 5.84-7.27 9.21-0.72 1.3-0.96 4.2-2.38 4.76q0-0.67 0-1.34c0.61-2.44 0.51-4.64 1.34-6.69 2.65-6.56 7.96-11.96 15.15-13.96 2.35-0.66 8.27 0.16 10.25-0.89-1.17-2.6-3.63-4.3-5.2-6.54-3.55-5.06-6.16-14.32-4.75-22.73zm-658.31 2.23c4.4-0.09 17.05 1.34 18.72 3.41-3.38-0.22-6.96-1.72-11.14-1.04-11.81 1.92-22.03 8.01-26.74 16.79q-0.3 0-0.6 0c-1.42-10.44 4.21-15.95 11.59-18.12q4.09-0.52 8.17-1.04zm723.38 0c5.86-0.06 12.19 6.73 10.4 13.22-4.13-0.02-9.52-2.41-12.63-1.19-7.32 2.87-11.6 10.94-17.38 15.6-1.65 1.33-3.26 3.68-5.65 4.16q0.37-0.45 0.75-0.89 2.22-3.57 4.45-7.13c5.43-9.19 9.84-19.31 20.06-23.77zm-278.57 1.48c2.49-0.04 7.38-0.71 9.22 0.3-3.45 9.84-5.06 13.82-15.16 17.09-4.64 1.49-10.55 0.88-12.92-2.38-0.93-1.27-1.21-3.36-0.75-5.2 1.54-6.06 6.05-8.19 12.48-9.36q3.57-0.22 7.13-0.45zm27.79 0.6c6.57-0.14 11.04 3.53 13.22 7.87 0.53 1.05 2.01 4.28 1.19 5.5-9.17-3.59-21.8 6.78-28.97 8.17q0-0.22 0-0.45c5.11-1.63 11.4-7.71 12.92-13.07q0.82-4.01 1.64-8.02zm-151.39 0.29c1.92 0.88 3.05 5.22 3.86 7.28 2.68 6.83 4.7 21.1 3.12 31.35-1.38 8.89-0.38 18.18-1.93 26.6q-1.34 8.98-2.68 17.97c-2.81 12.99-5.39 25.65-8.76 37.89q-2.6 9.5-5.2 19.01c-0.58 1.93-0.65 5.58-2.08 6.69q-0.08-0.15-0.15-0.3c1.32-4.13 1.05-9.27 1.93-13.82q2.45-15.07 4.9-30.15c2.23-10.62 3.24-21.69 5.35-32.69 3.94-20.48 6.35-48.72 1.64-69.83zm258.8 7.28c20.63-0.34 34.7 6.31 40.41 20.95 1.26 3.23 2.45 8.43 1.64 13.08-1.49 8.5-4.66 14.69-6.99 22.43q-3.93 16.42-7.87 32.83c-2.04 6.86-4.78 13.15-6.84 19.61q-0.14 0-0.29 0c1.16-10.91 6.5-25.51 4.31-37.58-1.91-10.48-7.28-15.43-11.74-23.03-6.29-10.71-9.61-21.28-17.23-30.76-3.42-4.24-9.52-7.24-15.31-9.06-1.31-0.41-8.24-1.32-8.61-2.08 5.32-1.51 10.36-3.74 16.34-5.05q6.09-0.67 12.18-1.34zm-313.18 1.64c27.44-0.4 41.74 15.42 47.25 36.99q0.89 6.02 1.78 12.04 0.07 4.16 0.15 8.32c0.66 4.13 0.37 10.16-0.15 14.11q-0.08 0-0.15 0c0.27-16.31-3.59-31.88-12.63-39.07-3.28-2.61-8.03-6.42-14.86-5.2-2.38 0.42-4.73 1.01-6.53 2.08-2.9 1.71-5.78 6.23-11 5.2-7.62-1.52-6.85-9.08-3.86-14.86q-3.56 0.74-7.13 1.48 0-0.22 0-0.44 0.15-0.22 0.3-0.45 7.8-2.82 15.6-5.64 0.07-0.23 0.14-0.45-0.22-0.15-0.44-0.3c-2.42-1.06-7 0.03-9.06 0.6-7.66 2.09-12.73 6.18-11 15.9q0.3 0.07 0.6 0.14 0.81-2.67 1.63-5.34 0-1.19 0-2.38 0.22 0.15 0.45 0.3c0.56 1.61 1.86 2.52 2.67 3.86 2.09 3.45 4.13 9.57 2.68 15-4.29 16.05-23.61 18.31-31.95 4.46-1.87-3.11-3.39-8.56-2.52-13.67 2.61-15.45 11.59-24.71 24.36-29.86q4.61-1.19 9.21-2.38 2.23-0.22 4.46-0.44zm-331.6 1.48q1.48-0.29 2.97-0.59c-0.35 1.08-1.98 2.06-2.82 2.67q-0.08 0-0.15 0 0-1.04 0-2.08zm519.98-0.44q0.3 0.15 0.6 0.3c-0.27 10.87-4.18 20.84-6.98 29.71-0.53 1.65-2.38 9.2-3.42 9.66q0-0.67 0-1.34 0.89-5.65 1.78-11.29c2.33-9.42 4.54-18.8 8.02-27.04zm345.28 0.59q0 1.27 0 2.53c-2.42 0.66-4.4 5.57-5.5 7.72-4.53 8.89-5.78 19.59-7.88 31.35-0.66 3.71-1.28 15.05-3.56 16.2 0.78-4.87 3.13-10.4 2.08-16.79-1.04-6.32-2.96-10.95-4.01-17.24-2.02-12.01 9.4-23.1 18.87-23.77zm-273.22 0.15c8.24-0.11 9.34 11.26 6.69 17.98-3.63 9.19-12.54 17.26-23.33 19.16q0-0.22 0-0.44c8.35-2.55 15.79-12.04 17.53-21.4 1.16-6.22-4.78-11.95-0.89-15.3zm-478.54 0.15c4.11-0.1 11.09-0.43 13.08 1.78q0 0.08 0 0.15c-10.13-0.49-22.63 6.95-26.45 13.22-1.02 1.69-1.36 3.76-1.93 5.95q-0.44 0.07-0.89 0.14c-3.39-1.71-4.62-7.61-2.53-11.73 2.36-4.64 7.34-7.21 12.93-8.62q2.9-0.44 5.79-0.89zm-55.11 1.63c3.96-0.1 9.53 1.78 8.61 5.8-0.74 3.24-12.53 13.21-18.42 9.65q-0.07-0.14-0.15-0.29c-0.06-8.29 4.37-12.29 9.96-15.16zm726.04 1.34c7.53-0.13 6.98 1.96 10.55 5.35 2.42 2.3 5.43 2.99 7.13 6.09 3.36 6.08-2.18 15.37-3.41 20.35-1.47 5.93-0.44 10.88-4.16 14.27-1.6 1.44-3.78 2.74-5.8 3.71q-2.52 1.04-5.05 2.08c-11.26 3.63-11.24-8.66-13.96-15.6-1.78-4.54-4.5-7.73-7.13-11.29q0-0.07 0-0.15 1.93 1.04 3.86 2.08c3.63 1.43 8.47 2.4 12.63 2.97q-0.08-0.22-0.15-0.44c-1.22-0.37-14.33-7.54-14.56-8.03 4.51 0.37 15.52 0.58 18.12-1.63q0-0.07 0-0.15c-6.76 0.1-11.12-2.05-16.64-2.52 0.45-1.06 5.77-3.79 6.99-4.76 4.61-3.66 6.01-9.43 11.58-12.33zm-748.48 1.49c4.74 0.73 12.11 11.43 5.05 14.26-6.55 2.63-7.59-10.05-5.05-14.26zm189.72 1.19c1.99 1.05 3.13 4.64 4.16 6.68 4.73 9.36 3.91 22.84 6.09 35.21q0.82 6.69 1.64 13.37-0.23-0.15-0.45-0.29c-1.78-8.21-3.04-15.38-5.94-21.99-2.39-5.44-6.38-9.6-8.62-15.16-2.54-6.31-0.4-14.09 3.12-17.82zm-149.46 1.33q0.45 0 0.89 0 0 0.23 0 0.45c-1.33 2.97-1.51 8.25-3.41 10.99-1.95 2.81-9.74 0.96-12.93 0q0-0.3 0-0.59c3.07-3.51 5.2-7.22 9.81-9.21q2.82-0.82 5.64-1.64zm466.06 2.53c1.15-0.07 1.92-0.04 2.38 0.59 1.28 1.95-0.08 4.93-1.34 5.8q-2.97 1.26-5.94 2.52c-2.89 1.77-10.51 10.53-16.2 8.02 0.09-8.54 2.82-14.29 10.11-15.89q5.49-0.52 10.99-1.04zm-426.83 4.01c6.14-0.2 14.19 1.7 12.47 8.17q-3.19 1.26-6.38 2.53c-4.13 2.48-6.75 6.51-9.21 10.69q-0.23 0-0.45 0c-4.06-8.95-7-16.45 3.57-21.39zm75.76 0.74c20.15 0.42 24.08 18.37 30.02 32.98-3.07-0.93-5.98-4.54-8.47-6.38-5.84-4.31-16.03-9.97-20.21-15.46-1.58-2.07-3.67-7.97-1.34-11.14zm58.24 0.15c3.55-0.1 6.34 2.56 5.35 6.39-0.87 3.39-3.14 6.02-4.75 8.76-2.21 3.75-3.82 8.29-5.2 12.78q-1.64 6.76-3.27 13.52-0.15-0.15-0.3-0.3c1.21-4.26 0.34-11.27-0.3-15.45-1.78-11.75 1.57-21.87 8.47-25.7zm504.98 2.97c9.96-0.19 10.14 12.4 2.08 14.12-5.81 1.24-10.51-4.6-8.02-10.11 1.02-2.26 3.56-3.02 5.94-4.01zm-143.81 1.04c11.35-0.16 20.98 8.6 18.87 21.1q-0.97 3.49-1.93 6.98-0.3 0-0.6 0c-6.93-3.05-18.39 2.22-24.51-2.38-1.36-1.01-2.17-2.55-2.97-4.16-4.39-8.82 8.72-10.67 15.45-8.76q-0.22-0.3-0.45-0.6c-3.05-6.55-13.14-3.16-16.34 0.9q-1.19 2-2.38 4.01-0.07 0-0.14 0-0.08-0.23-0.15-0.45c2.55-7.06 3.73-12.62 10.4-15.45q2.37-0.59 4.75-1.19zm-60.91 0.74c5.49-0.07 7.61 8.94 5.64 13.97-2.66 6.83-12.53 11.87-23.17 9.95-3.24-0.58-6.16-0.93-7.88-2.97-1.32-1.57-1.88-4.76-0.44-6.68 2.47-3.31 9.36-3.92 13.37-5.65 4.97-2.13 7.84-6.07 12.48-8.62zm271.43 0c19.72-0.15 22.63 19.14 25.41 35.81 1.41 8.49-1.76 16.31-4.02 21.69-0.74 1.79-1.61 5.42-3.41 6.09q0-0.07 0-0.15c1.72-3.26 3.14-7.14 4.16-11.14q0.52-3.64 1.04-7.28c2.79-17.52-9.17-21.19-17.39-27.78-4.83-3.88-8.26-10.1-11.14-15.9q0.23-0.15 0.45-0.3 2.45-0.52 4.9-1.04zm-761.11 0.6c5.51-0.19 12.3 2.1 10.85 8.17-0.38 1.56-0.85 2.62-1.94 3.42-6.22 4.55-12.96-5.3-9.21-11.44q0.15-0.08 0.3-0.15zm399.05 1.34c1.24 0.92 0.75 5.02 1.04 6.83 1.19 7.34 1.41 18.01 0.15 25.55-1.04 6.23-1.49 12.26-4.16 16.79-4.98 8.44-13.08 13.59-18.87 21.1-3.26 4.24-6.52 8.57-9.36 13.22q-2.52 4.76-5.05 9.51-0.15-0.07-0.3-0.15 0-0.07 0-0.15 0.9-2.89 1.79-5.79c1.21-3.56 2.78-7.16 4.6-10.25 5.34-9.03 11.99-16.17 15.6-27.04 1.03-3.11 3.86-15.47 0.89-18.42q-0.07 0-0.15 0c0.25 11.93-4.04 19.87-8.46 27.18q-2.45 4.01-4.91 8.03-0.07 0-0.14 0 0-0.3 0-0.6c0.76-2.57 0.29-6.71 0.29-9.8 0-7.35-0.13-14.5 1.49-20.36 4.34-15.67 16.25-24.78 25.55-35.65zm-357.6 0.14c1.3 0.73 1.4 2.98 1.93 4.46q1.34 3.2 2.68 6.39c0.84 1.45 2.77 3.48 2.97 4.9-9.46 0.17-14.21-9.49-7.58-15.75zm-51.85 0.75c6.62-0.22 10.36 6.04 5.79 10.1-4.68 4.17-7.95-2.13-11.88-2.97-2.8-0.6-4.58 1.45-6.09 0q0.07-0.67 0.15-1.34c1.5-2.84 8.84-4.22 12.03-5.79zm682.67 0.15c4.76-0.15 12.86 1.2 13.96 4.16-4.29 1.19-7.81 3.04-10.1 6.24q0 0.22 0 0.44 0.89 0 1.78 0 5.05-1.34 10.11-2.67 0.07 0.07 0.14 0.15-0.07 0.22-0.14 0.44c-2.01 2.48-2.73 5.96-4.02 9.21q0.15 0.08 0.3 0.15 0.15-0.15 0.3-0.3 3.79-3.56 7.58-7.13 0.14 0.08 0.29 0.15c-0.1 4.82-0.82 9.48-1.33 13.52q0.22 0 0.44 0c1.05-2.73 2.81-5.03 3.72-8.17q0.14-2.53 0.29-5.05 0.3 0.22 0.6 0.44c1.54 3.72 3.51 6.85 4.31 11.74 2.4 14.76-11.24 27.12-25.11 22.88-7.24-2.21-9.05-7.44-12.93-12.92-2.16-3.06-4.67-5.27-5.94-9.36-0.88-2.82-1.44-7.67-0.3-10.7 2.08-5.52 6.2-10.25 11.74-12.33q2.15-0.45 4.31-0.89zm-601.85 0.89c1.37 0.87-0.57 5.96-1.04 7.28-1.87 5.25-7.36 7.41-14.86 5.79 0.77-3.07 8.31-9.01 11-10.7q2.45-1.18 4.9-2.37zm-116.62 0.44q0.37 0.08 0.74 0.15-2.16 2.97-4.31 5.94c-2.97 4.71-5.92 10.78-10.25 14.12q0-5.05 0-10.1c1.52-3.71 6.38-7.33 10.1-8.92q1.86-0.59 3.72-1.19zm244.54 0.89q0.29 0 0.59 0 0 0.15 0 0.3 0.45 2.6 0.89 5.2c2.07 11.96-4.36 19.2-9.06 25.41q-2.75 3.56-5.5 7.13-0.07 0-0.15 0c1.15-16.09 5.85-28.31 13.23-38.04zm-229.84 1.04c8.29-0.34 8.79 9.38 2.83 11-5.01 1.36-8.72-4.14-6.24-8.32 0.8-1.36 2.04-1.87 3.41-2.68zm187.94 0.45c10.25 6.27 12.36 19.85 17.23 31.65q-0.14 0.07-0.29 0.14-0.08 0-0.15 0c-1.6-4.16-6.47-8.75-9.06-12.48-2.87-4.13-3.79-9.25-5.65-14.56q-1.04-2.37-2.08-4.75zm-199.82 0.15q0.15 0.07 0.3 0.15c-2.39 11.28-8.38 17.25-16.79 22.43q-0.08 0-0.15 0 0-1.11 0-2.23c1.73-0.85 2.99-2.99 4.16-4.45 4.15-5.19 8.4-10.52 12.48-15.9zm743.28 5.5c3.65 0.58 5.09 6.11 6.24 9.36 3.66 10.35 7.42 23.44-2.67 30.15-1.42 0.95-4.04 2.87-6.09 2.53q0-0.07 0-0.15c4.14-5.86 8.21-22.87 5.94-33.28-0.75-3.4-2.63-5.83-3.42-8.61zm104.89 2.67c0.78 0.58 0.49 8.17 0.45 9.95-1.11 0.27-1.95 1.65-2.68 2.38q-0.15-0.07-0.3-0.15 0-0.07 0-0.15c0.39-4.39 1.98-8.23 2.53-12.03zm-684.75 0.3c18.9-0.26 30.3 8.71 40.86 16.93 4.26 3.32 9.58 7.46 12.33 12.19q-0.08 0.14-0.15 0.29-0.22-0.07-0.45-0.15c-1.33-1.69-3.27-2.28-5.19-3.41-10.78-6.32-26.25-8.27-37.89-13.97-3.55-1.73-11-6.11-9.51-11.88zm-157.48 2.82q0.22 0.15 0.45 0.3-2.6 2.89-5.2 5.79c-3.81 4.74-8.5 9.56-13.23 13.37q-2.22 2.16-4.45 4.31-0.08 0-0.15 0c-0.05-1.56-0.53-5.63 0.3-6.54q2.6-2.22 5.2-4.45 4.97-4.16 9.95-8.32 3.56-2.23 7.13-4.46zm84.83 1.78c8.15-0.24 9.57 10.33 2.83 12.19-7.91 2.16-11.07-8.81-2.83-12.19zm384.79 0.6c2.92-0.07 8.32-0.63 10.1 0.74q-0.14 0.22-0.29 0.45c-4.17 1.31-7.79 5.24-11.29 7.57q-11 7.65-21.99 15.3c-2.53 1.91-4.52 4.5-6.98 6.39q-0.08 0-0.15 0 2.52-4.23 5.05-8.46c4.21-7.22 5.98-13.98 13.07-18.28 2.36-1.42 5.38-2.39 8.32-3.12q2.08-0.3 4.16-0.59zm-227.75 1.19q0.22 0 0.44 0c-1.57 10.61-6.63 20.12-15.15 23.91-1.17-1.69 2.24-5.01 3.12-6.38q5.79-8.77 11.59-17.53zm-228.94 2.22c14.33-0.2 22.03 6.25 26.14 16.2 1.2 2.9 3.47 10.16 1.49 14.41-1.74-0.31-3.31-1.29-5.35-1.64-5.16-0.86-10.31 0.81-15-0.29-9.73-2.29-15.81-7.38-20.36-14.86-1.04-1.72-2.58-3.84-2.97-6.09q3.94 0.89 7.87 1.78c6.62 2.61 12.23 6.21 21.1 6.84-1.43-4.15-13.01-8.64-17.98-9.96q-3.78-0.52-7.57-1.04c2.01-2.52 5.78-3.97 9.36-4.9q1.63-0.22 3.27-0.45zm777.15 1.34c13.73 1.58 23.1 15.27 18.57 32.09-2.08 7.72-6.28 13.32-12.18 17.24-1.89 1.25-8.14 5.41-10.4 5.2q0.15-0.23 0.3-0.45c8.3-3.17 15.55-13.18 18.57-21.84 1.52-4.36 1.39-11.33-0.74-14.86-5.81-9.6-20.14-4.77-17.68 8.47q-0.15 0.08-0.3 0.15c-5.08-2.41-9.58-13.26-5.65-19.91 2.69-4.54 4.41-4.16 9.51-6.09zm-542.27 1.64q0.15 0 0.3 0c-1.63 8.97-11.51 19.78-18.87 23.32q-0.15-0.15-0.3-0.3c1.17-3.59 5.38-5.59 7.58-8.32 3.89-4.81 7.9-9.33 11.29-14.7zm594.42 0.89c0.55 0.36 0.5 0.99 0.45 1.93q-1.64 0.82-3.27 1.63 1.41-1.78 2.82-3.56zm-369.78 3.86q0.29 0 0.59 0 0 0.07 0 0.15c-5.74 14.18-15.12 19.73-31.35 23.17q0-0.22 0-0.44c7.17-2.75 9.42-10.48 15.16-14.56 4.61-3.29 12.2-3.82 15.6-8.32zm215.12 0.45q0.3 0 0.6 0-0.3 0.44-0.6 0.89c-3.28 1.5-9.94 9.07-12.33 12.03-9.47 11.74-21.22 23-27.19 38.03q0.22-0.14 0.45-0.29c1.48-3.62 4.55-6.49 7.43-8.77 11.52-9.11 28.85-16.49 49.62-11.29 18.82 4.72 34.88 13.91 43.97 28.38 6.15 9.78 8.19 19.2 10.55 33.13q0 9.65 0 19.31-0.15 0.15-0.3 0.3-0.07 0-0.14 0 0-0.15 0-0.3-0.45-5.2-0.9-10.4c-1.09-5.75-2.52-11.43-4.6-16.34-9.49-22.44-27.17-35.29-50.96-43.53-10.85-3.76-27.25-5.39-38.18-0.6-8.19 3.59-15.07 10.26-19.61 17.54-1.65 2.64-2.99 9.12-5.05 10.99q-0.08 0-0.15 0 0-0.08 0-0.15c1.96-3.59 2.6-8.26 4.01-12.33 2.24-6.46 5.03-12.82 8.32-18.42 4.73-8.05 10.86-14.27 16.49-21.25q3.71-3.94 7.43-7.87 5.57-4.53 11.14-9.06zm-291.04 2.37c2.88 1.08 5.01 4.16 6.53 6.69 9.21 15.23-0.41 35.85-5.64 47.84-1.44 3.31-3.02 6.68-3.86 10.4-0.81 3.53 0.08 7.57 0.59 10.84 0.69 4.36 0.09 9.64-0.74 13.22-0.46 0-0.21 0.15-0.6-0.14 0.65-2.06 0.38-5.69 0-7.88-1.85-10.66-3.71-18.01-8.17-25.55-1.92-3.25-5.13-8.11-4.16-13.82 1.27-7.48 3.8-13.16 7.43-18.27 3.03-4.28 6.75-7.69 8.47-13.37 0.91-3.02 0.04-7.31 0.15-9.96zm445.7 1.34q0.22 0 0.45 0 0 3.27 0 6.54c-2.48 0.69-4.5 4.11-6.39 5.64q-6.84 6.32-13.67 12.63c-1.8 1.45-3.37 4.74-5.65 5.5q0.08-0.23 0.15-0.45 4.68-6.31 9.36-12.63 5.28-6.09 10.55-12.18 2.6-2.52 5.2-5.05zm-671.08 0.89c11.61-0.22 20.92 1.46 28.08 5.65 1.84 1.07 5.15 1.94 6.09 3.86-2.34-0.84-4.46-2.19-7.28-2.82-12.66-2.87-21.25 3.6-29.42 6.98-2.07 0.86-9.45 2.75-11.14 0.15-0.66-1.63 0.08-4.33 0.45-5.5 1.48-4.64 4.44-6.72 9.36-7.87q1.93-0.23 3.86-0.45zm87.06 5.2c8.33-0.17 17.94 3.96 19.76 9.81-9.25-2.4-23.34-4.2-34.91-2.08-2.8 0.51-5.6 1.49-8.03 1.93q0.08-0.23 0.15-0.45 5.95-3.27 11.89-6.54 3.71-1.11 7.43-2.22 1.85-0.23 3.71-0.45zm-40.56 1.34c12.68-0.35 13.26 15.79 3.12 17.97-6.63 1.43-12.8-5.69-10.55-11.73 1.38-3.68 3.88-4.66 7.43-6.24zm293.72 0.44c7.15-0.11 11.05 2.34 16.94 3.57q0.07 0.15 0.14 0.3c-1.08 1.37-2.78 2.02-4.3 2.97-9.16 5.69-18.31 4.78-30.91 6.98-2.33 0.41-12.63 0.34-13.22-0.89 12.8-1.42 18.08-6 26.6-11.14q2.37-0.9 4.75-1.79zm-402.77 146.64q2.38-6.98 4.76-13.97c2.32-7.31 3.43-14.39 4.9-23.02 0.73-4.31-0.1-9.76-0.74-13.52-1.23-7.15 0.09-15.15-1.64-21.4-2.29-8.28-6.69-13.77-8.32-23.02-1.25-7.12 2.48-13.3 4.31-17.98 1.47-3.76 2.24-7.41 3.27-11.59 0.57-2.31 1.57-5.69 1.04-8.77-0.48-2.81-0.94-5.31-1.93-7.57q-1.34-2.31-2.68-4.61c1.7 0.43 2.92 2.29 4.16 3.27 6.41 5.06 13.55 14.58 10.4 27.04-2.54 10.07-8.28 16.3-10.1 27.19-0.9 5.4 2.7 11.9 3.72 16.49 2.02 9.14 1.78 29.1 0 38.48-1.48 7.78-3.35 14.68-5.95 21.39q-2.08 5.8-4.16 11.59-0.52 0-1.04 0zm80.38-143.07c4.09-0.08 15.35 1.28 17.38 2.82q-0.15 0.15-0.3 0.3c-6.54-1.29-13.03 2.25-17.38 4.16-11.46 5.03-19.28 12.28-26.59 21.39q-3.35 2.97-6.69 5.95-0.44-0.15-0.89-0.3c-1.33-18.24 9.89-28.51 23.47-32.69q3.42-0.67 6.84-1.33 2.08-0.15 4.16-0.3zm444.36 0.15c1.48 1.97 2.09 8.52 2.68 11.44 3.39 16.76-1.24 34.4-7.73 45.16-1.26 2.1-4.65 8.9-6.68 9.66q0.07-0.22 0.15-0.45c1.29-1.26 1.89-3.27 2.67-5.05 3.35-7.65 4.94-15.58 6.54-25.55q-0.15-5.2-0.3-10.4c-1.4-8.6-0.7-19.2 2.67-24.81zm-553.56 2.82c14.69 0.73 23.87 7.56 26 20.95 0.95 5.97-1.12 11.63-2.23 16.04q-1.04 5.58-2.08 11.15-0.22-0.15-0.44-0.3c0.09-14.58-4.5-25.49-10.55-34.02-1.62-2.28-10.76-12.09-10.7-13.82zm384.05 1.04q0.37 0 0.74 0c-0.73 2.54-10.97 10.31-13.52 12.18-9.1 6.67-19.72 11.74-29.42 17.83q-6.68 4.53-13.37 9.06-2.52 2.16-5.05 4.31c0.67-2.02 8.58-8.96 10.55-10.55q7.8-7.05 15.6-14.11c4.51-4.51 8.79-9.88 15.01-12.63q6.38-2.15 12.77-4.31 3.35-0.89 6.69-1.78zm-216.91 0.59c13.28-0.23 23.6 1.09 31.5 5.95 1.57 0.97 7.41 4.78 6.53 7.13-1.75 4.73-13.24 10.59-20.5 7.58-4.46-1.85-7.29-6.24-10.84-9.07-5.84-4.64-11.83-7.99-20.66-9.8q0.08-0.3 0.15-0.6 6.91-0.59 13.82-1.19zm299.81 0.15c7.12-0.18 11.37 9.41 4.75 12.04-9.11 3.61-15.21-7.44-4.75-12.04zm-344.97 1.04q3.26 0.08 6.53 0.15c-0.48 1.31-9.26 7.19-10.99 8.92-8.12 8.11-19.03 26.61-32.98 27.63q-0.23-0.22-0.45-0.45c-0.17-18.94 13.89-28.6 27.49-33.87 3.12-1.21 7.12-1.07 10.4-2.38zm-216.02 1.93c7.63 0.27 6.85 11.33 10.4 12.63-0.07-4.96 3.55-17.09 8.47-9.51 2.39 3.7 1.09 9.78 1.93 15.16 1.6 10.27 3.47 26.22-1.34 34.17q-0.22 0-0.45 0c-1.84-2.98-3.09-7.13-4.01-10.85q-0.59-3.19-1.19-6.38c-3.38 3.96-0.6 13.3 0 17.67q-0.07 0.08-0.14 0.15c-7.06-3.15-12.32-8.5-17.98-13.07q-2.01-1.86-4.01-3.71 0-13.52 0-27.04 0.07 0 0.15 0 0.59 0.52 1.19 1.04 2.97 3.41 5.94 6.83 0.15-0.15 0.3-0.3c-2.89-5.83-7.08-13.13 0.74-16.79zm572.73 0c3.24 0.81 10.22 6.67 12.92 8.77 10.67 8.31 25.91 25.8 20.8 46.5-1.3 5.28-3.24 9.96-5.2 14.41-2.08 4.73-4.42 9.02-6.98 13.23-0.8 1.3-1.28 3.94-2.82 4.45q0-0.37 0-0.74c0.99-3.38 0.59-7.13 1.18-10.99 1.49-9.71 1.24-23.37-0.44-32.54-0.59-3.19-0.73-9.77-2.38-11.74q-0.3 0.15-0.59 0.3c-0.77 2.51-1.92 4.98-2.53 7.87-1.81 8.65-0.27 18.94 1.19 26.75q0.82 7.87 1.63 15.74c0.45 2.79-0.25 17.61-1.33 18.13q0-0.15 0-0.3-0.08-2.38-0.15-4.75-0.82-7.58-1.64-15.16c-2.75-13.07-7.34-23.21-9.8-36.25-1.12-5.92-0.22-13.45 0.89-18.57 0.58-2.66 1.91-6.08 1.34-9.51-0.73-4.38-1.55-8.22-3.42-11.44q-1.34-2.08-2.67-4.16zm-25.26 0.3c4.01-0.1 5.37 1.56 6.83 3.86q0 0.08 0 0.15c-2.35-0.51-5.51-0.79-8.47-0.59q-0.14-0.15-0.29-0.3 0.15-1.26 0.29-2.52 0.15-0.23 0.3-0.45 0.67-0.07 1.34-0.15zm-193.58 0.6c8.1-0.14 13.66 5.69 8.91 12.77-2.63 3.93-8.43 4.73-13.07 6.69-2.68 1.13-5.14 2.75-7.28 4.46-1.61 1.28-5.95 8.55-6.54 8.76q0-0.15 0-0.3-0.52-2.97-1.04-5.94c-1.9-11.33 5.2-19.54 11.74-23.62 2.2-1.38 4.63-1.67 7.28-2.82zm-110.09 2.08c14.33 2.25 30.07 12.74 37.58 22.13 2.1 2.62 7.8 8.53 8.18 12.19q-0.23 0.07-0.45 0.14c-3.77 2.18-11.4 1.11-15-0.29-11.61-4.53-13.86-14.91-20.51-24.22q-2.97-3.19-5.94-6.39c-1.17-0.94-3.3-2.08-3.86-3.56zm-18.72 0.14q0.22 0 0.44 0-0.07 0.3-0.15 0.6c-9.17 3.73-13.59 13.22-19.01 20.8-4.58 6.4-10.43 10.65-17.38 14.71-2.51 1.46-6.24 3.63-9.51 4.01q0-0.08 0-0.15 0.22-0.3 0.44-0.6c1.64-0.59 2.73-2 4.01-2.97 5.74-4.33 11.26-9.28 15.75-14.85 5.14-6.36 12.75-14.16 19.61-18.72q2.9-1.41 5.8-2.83zm15.3 3.12c2.86 0.5 5.68 4.54 7.28 6.54 3.91 4.9 7.31 9.93 9.81 16.34 1.88 4.84 2.35 10.86 4.9 15.01 1.32 2.16 3.32 4.32 5.35 5.79 1.41 1.03 4.66 1.92 5.35 3.57-15.22 4.66-24.56-6.47-28.08-18.27-1.46-4.88-1.22-10.39-2.23-15.9q-1.19-6.54-2.38-13.08zm-12.93 0.45q0.38 0 0.75 0c-0.36 2.85-1.67 6.23-1.04 10.1 2.34 14.35 5.51 28.18-1.34 40.71q-0.3 0-0.59 0c-4.19-3.59-8.81-5.81-11.44-10.99-1.13-2.22-1.72-4.96-2.23-7.73-2.12-11.35 3.38-23.55 8.91-27.93 2.12-1.67 4.71-2.55 6.98-4.16zm8.03 0.74c1.11 0.87 0.57 9.04 0.89 11.29 1.22 8.54-2.36 26.47-6.24 29.57q-0.08 0-0.15 0c0.73-3.4 1.59-7.17 2.23-11.44 1.3-8.64-2.75-18.03 0.3-25.41 0.66-1.59 1.99-2.71 2.97-4.01zm617 0c2.38-0.03 2.94 0.87 4.46 1.49q0 9.73 0 19.46c0 1.91 0.59 6.01-0.3 7.28q-0.22-0.15-0.45-0.3-1.93-2.74-3.86-5.49c-3.59-5.84-8.03-17.99 0.15-22.44zm-443.33 0.3c-6.46 5.63-11.21 11.91-7.57 23.18q0.14 0 0.29 0c-0.19-10.7 5.61-15.49 7.73-23.18q-0.22 0-0.45 0zm115.44 0.3c10.27 1.55 27.94 13.32 25.7 27.04-1.11 6.83-3.1 11.35-4.6 17.08q-0.3 0-0.6 0c0.08-10.93-6.43-9.48-8.02-16.34-0.47-2.03 0.19-4.08 0.45-5.94q0.14-0.08 0.29-0.15 0.23 0.15 0.45 0.3c0.18 3.24 4.36 12.66 7.57 11.58q0.23-0.14 0.45-0.29c-0.31-5.97-3.79-9.79-6.09-13.97-2.57-4.67-3.99-8.93-7.13-12.78-1.65-2.01-7.65-5.13-8.47-6.53zm-482.99 0.15c2.32-0.05 5.65-0.34 7.28 0.44-0.18 3.37-6.6 13.98-5.5 15.75 3.42-1.31 11.58-12.19 16.49-9.06 4.41 2.81 0.09 11.25-1.63 13.67-3.35 4.7-8.59 7.84-12.63 11.88-5.4 5.4-9.23 12.05-16.49 15.6q-0.3-0.07-0.6-0.15c0.39-8.31 3.12-15.95 5.35-22.43q-0.44 0.37-0.89 0.74-1.49 2.68-2.97 5.35-1.78 4.46-3.57 8.91c-0.6 1.47-1.03 4.51-2.52 5.05 1.25-3.89 0.79-11.61 0.15-15.89-1.38-9.21 1.49-20.1 5.05-24.66 1.99-2.56 5.77-4.13 9.51-4.91q1.48-0.15 2.97-0.29zm55.12 1.04c4.03 2.29 3 24.93 4.45 31.05 3.89 16.33 15.11 25.22 22.88 37.73 2.94 4.74 6.61 10.86 6.84 17.98q-0.08 0-0.15 0-0.15-0.08-0.3-0.15c-0.82-6.04-4.11-10.21-6.98-14.26-6.03-8.49-13.47-15.64-18.87-24.66-4.8-8.02-6.02-17.4-7.73-28.83q-0.07-9.43-0.14-18.86zm414.94 0.74c14.69-0.23 24.73 11.2 21.1 26.3q-0.15 0.07-0.3 0.14-0.22-0.14-0.44-0.29c-0.32-3.78-2.55-6.85-3.86-9.81-2.96-6.67-8.88-15.26-19.91-12.48-4.21 1.06-7.16 3.56-11 5.05-5.9 2.29-19.6 3.12-27.63 1.79-3.95-0.66-12.91-0.03-15.3-1.94q0.15-0.14 0.29-0.29c3.52 1.19 13.84 1.13 18.13 0.44q6.83-0.44 13.67-0.89c7.62-1.47 13.16-4.24 19.46-6.68q2.9-0.67 5.79-1.34zm110.98 1.93c12.64 0.13 14.06 20.91 11.44 33.28q-0.07 0-0.14 0-0.15-0.15-0.3-0.3c2.43-8.44-1.09-20.41-4.31-24.96-1.26-1.78-6.85-6.14-6.69-8.02zm-19.31 6.54c1.81 0.59 3.77 4.03 4.9 5.49 9.78 12.63 7.51 26.55-0.15 39.67-1.23 2.12-3.53 8.14-5.64 8.92q0.22-0.3 0.44-0.6 1.42-2.45 2.83-4.9c2.08-4.46 3.63-9.42 4.75-14.71 2.44-11.46-3.84-25.9-7.13-33.87zm-296.24 4.45c8.9-0.25 10.52 11.06 2.82 12.78-5.39 1.21-9.57-3.87-7.73-8.91 0.87-2.37 2.62-2.86 4.91-3.87zm143.22 0c8.53 3.37 16.48 8.07 20.5 15.9 0.88 1.71 3.29 7.66 1.19 10.1q0 0.15 0 0.3-0.3-0.07-0.6-0.15c0.94-9.71-9.9-18.26-15.6-22.28-1.7-1.21-4.43-2.03-5.64-3.72q0.07-0.07 0.15-0.15zm-241.43 1.04q0.15 0 0.3 0c-0.78 4.8-2.52 11.19-1.63 16.94q-0.23 0-0.45 0c-2.19-5.88-0.78-12.25 1.78-16.94zm519.54 23.77c-1.68-0.14-3.68-0.81-5.64-0.29-5.72 1.5-8.91 7.35-17.68 5.35-4.6-1.05-8.77-3.8-11.29-6.99-4.73-5.97-7.95-15.23-19.61-9.36q-3.27 2.08-6.54 4.16c-5.67 4.42-9.81 11.81-12.78 18.87-1.07 2.54-2.16 9.21-3.86 10.85 2.68-17.01 13.29-35.09 28.23-39.82q4.9-1.26 9.8-2.52c4.23-1.33 7.83-3.01 12.78-3.87 14.33-2.49 26.53 11.01 26.59 23.62zm-488.78-21.98c0.87 0.69 2.32 9.87 2.97 11.59 3.25 8.59 8.63 14.95 10.25 25.1 0.56 3.49-0.5 6.55-0.89 9.21q-0.3 0-0.6 0c-3.47-5.04-8.97-7.92-11.58-13.96-3.91-9.05-1.29-22.63-0.15-31.94zm233.69 0.59q9.22 5.2 18.43 10.4c4.15 2.61 7.59 6.01 13.96 6.39-1.04-3.42-9.49-9.28-12.63-11.14q-2.6-1.34-5.2-2.68 0.08-0.07 0.15-0.15c6.07 3.37 14.76 3.45 21.69 6.1 10.17 3.88 12.16 8.8 17.39 17.38q1.04 1.33 2.08 2.67-0.08 0.08-0.15 0.15-0.3-0.3-0.6-0.59c-1.91-0.82-3.56-2.13-5.94-2.68-7.12-1.65-14.79-0.25-20.8-2.67-4.92-1.99-9.68-5.07-12.78-8.92q-2.74-3.04-5.49-6.09c-1.35-1.09-9.97-7.57-10.11-8.17zm-10.1 0.15c10.59 2.71 21.85 12.95 24.07 24.22 1.91 9.69-6.94 19.5-12.03 23.02-1.6 1.11-5.79 4.19-8.47 3.27q1.26-0.52 2.52-1.04c2.62-1.43 5.28-3.45 6.84-5.94 1.22-1.95 2.33-5.58 1.78-9.06q-0.22-3.2-0.45-6.39c1.25-6.34 3.34-8.7-0.44-14.86-2.02-3.28-5.19-6.85-8.17-9.21-1.46-1.15-4.75-2.39-5.65-4.01zm-307.09 0.15q0.3 0 0.6 0 0 0.52 0 1.04c3.2 10.87-8.36 24.55-12.04 30.75q-2.67 5.8-5.35 11.59-0.14-0.07-0.29-0.15c0.8-6.69 1.04-13.84 2.82-19.76 3.03-10.04 8.74-16.16 14.26-23.47zm167.74 0.3c6.98-0.28 9.5 9.52 4.3 11.44-6.33 2.33-12.67-7.18-4.3-11.44zm-64.78 1.18c1.65 0.66 3.12 3.75 4.31 5.06q1.78 1.63 3.56 3.26c2.71 3.48 5.1 8.69 6.69 13.08-4.32-1.43-13.3-16.37-14.56-21.4zm597.84 29.87q-2.75-0.15-5.5-0.3 2.75 0.82 5.5 1.63 0 5.13 0 10.25c-10.18 0.42-18.57 2.35-23.48-5.2-0.96-1.47-2.73-5.02-1.63-7.42 1.45-0.26 3.14 0.49 4.16 0.44q-0.15-0.22-0.3-0.44c-3.54-1.18-11.1-11.26-4.31-13.82 5.36-2.02 14.67 5.17 18.28 6.68q-0.15-0.29-0.3-0.59c-2.12-4.28-7.95-6.78-10.25-11.59-0.8-1.66-1.5-5.2 0.29-6.24 1.29-1.2 4.45-0.43 5.8 0.15 3.82 1.64 8.35 6.62 11.74 7.58q0 9.43 0 18.87zm-409.31-24.07q0.22 0.07 0.45 0.15-0.45 0.52-0.89 1.04c-4.49 2.21-11.62 12.51-14.56 16.93-11.91 17.89-19.69 40.06-23.33 66.26q-0.15 0.08-0.3 0.15-0.14-0.07-0.29-0.15 0-0.07 0-0.14 0.96-8.03 1.93-16.05c2.18-11.14 4.19-22.35 8.02-32.09 4.18-10.63 9.46-20.89 17.68-27.49q5.65-4.3 11.29-8.61zm-113.21 2.67c7.57 0.1 19.33 12.07 10.25 17.68-9.25 5.72-12.59-9.44-10.25-17.68zm-273.81 0.45c2.72-0.05 5.48 0.01 7.43 0.59q0.08 0.15 0.15 0.3-0.22 0.3-0.45 0.59c-13.29 4.03-20.65 15.61-33.87 19.32 0.71-1.99 3.88-3.83 5.2-5.5 3.79-4.8 7.12-10.47 13.08-13.07 2.54-1.12 5.66-1.05 8.46-2.23zm400.39 1.48c1.07 1.13 1.81 7.41 2.53 9.21 2.7 6.74 11.3 14.79 5.2 23.92-1.15 1.72-2.72 3.54-5.05 4.02-5.59 1.13-9.22-3.88-8.32-9.36q1.11-5.35 2.23-10.7c1.18-5.77 0.74-12.77 3.41-17.09zm-469.32 0.9c3.19 1.82 6.72 5 8.91 7.87 3.99 5.22 6.62 10.27 16.05 9.66q0 0.22 0 0.44c-6.59 1.77-17.43 2.76-24.96 0.6q0-9.29 0-18.57zm321.5 0.29q0.52 0.08 1.04 0.15 2.08 3.49 4.16 6.98c1.16 1.59 2.92 2.99 3.71 4.91 1.95 4.74-1.5 9.07-5.2 9.8-7.59 1.49-12.67-7.85-10.55-14.86 1.22-3.98 3.55-5.07 6.84-6.98zm10.1 0c6.04-0.25 8.84 6.98 3.72 9.06-5.76 2.34-10.87-5.48-3.72-9.06zm324.32 3.42q0.23 0 0.45 0c-0.18 6.7-3.03 14.98-4.61 21.1-3.92 15.27-7.52 30.17-12.03 44.86q-2.08 7.58-4.16 15.16c-0.56 1.85-0.64 4.92-1.93 6.09q-0.08 0-0.15 0 0-0.3 0-0.6 5.2-21.54 10.4-43.08 3.64-13.97 7.28-27.93 2.38-7.8 4.75-15.6zm-579.71 0.15c5.65-0.11 13.33 1.83 9.51 8.02-2.07 3.36-10.61 6.73-11.59 9.21q0.23 0 0.45 0c3.77-1.59 13.8-4.39 15.6 0.74 2.44 6.98-6.65 10.38-12.04 10.4q0 0.08 0 0.15 0.23 0.3 0.45 0.6 4.38 0.74 8.77 1.48 0.07 0.3 0.14 0.6-0.29 0.37-0.59 0.74c-3.02 1.24-5.4 2.87-9.36 3.57-10.78 1.88-31.46-7.09-35.51-12.19q0.15-0.15 0.3-0.29c2.86 0.83 10.43-1.65 11.74-2.98-4.22 0.67-8.85 1.06-13.97 1.04q0.08-0.29 0.15-0.59c6.56-1.06 15.24-10.33 20.21-13.97 3.12-2.28 6.78-4.39 10.84-5.64q2.45-0.45 4.9-0.89zm-76.21 16.04c6.37 2.14 13.25 2.06 21.24 3.12q0 0.3 0 0.6c-4.83 3.95-13.83 5.15-21.24 6.39q0-5.06 0-10.11zm28.82 0.3c9.37 0 10.71 12.84 2.67 14.86-5.92 1.48-11.52-3.68-9.5-9.51 1.16-3.35 3.53-4.05 6.83-5.35zm137.57 2.38c11.32-0.21 13.25 14.68 5.5 19.61q-0.22 0-0.44 0c2.73-11.45-7.14-14.1-14.86-8.47-2.69 1.96-4.84 5.09-5.94 8.62q-0.6 2.75-1.19 5.49-0.08 0-0.15 0-0.08-0.22-0.15-0.44 0.59-4.61 1.19-9.21c1.88-6.2 6.54-12.12 12.18-14.56q1.93-0.52 3.86-1.04zm30.61 0.44c9.63-0.32 9.81 11.04 2.38 12.93-5.5 1.39-9.55-4.42-7.43-9.36 0.92-2.16 2.81-2.65 5.05-3.57zm91.07 0.15q0.22 0 0.45 0c6.74 6.29 7.18 23.03 4.9 35.21q-0.08 0-0.15 0-0.07 0-0.15 0 0-0.15 0-0.3-0.15-2.22-0.3-4.45-0.81-3.72-1.63-7.43c-1.76-7-5.88-14.58-3.12-23.03zm20.21 4.31q0.59 0.22 1.18 0.45c1.2 2.61 3.07 4.64 3.87 7.87 2.3 9.35-5.34 18.13-8.03 24.22-0.75 1.7-3.08 10.03-4.16 10.69-0.71 0.3-1.61-0.14-1.93-0.74-2.32-2.48-1.61-8.37-2.23-12.48-1.98-13.21 5.03-24.24 11.3-30.01zm-308.28 5.2q9.66-1.63 19.31-3.27 0.08 0.3 0.15 0.6-2.67 2.08-5.35 4.16c-4.03 2.72-8.74 4.51-14.11 5.94q0-3.72 0-7.43zm38.77-3.12q1.86 1.19 3.72 2.38 3.86 1.93 7.72 3.86c10.2 4.4 22.21 5.29 27.64 14.41 1.59 2.69 3.46 7.18 2.67 11.89-0.35 2.08-0.62 4.25-0.3 6.38q-0.07 0-0.14 0-0.23-0.14-0.45-0.29c-2.79-10.75-17.99-23.35-26.74-28.82-4.4-2.76-11.95-4.97-14.12-9.81zm183.49 0c10.02-0.35 10.6 10.84 2.97 12.93-5.35 1.46-9.51-3.66-7.88-8.77 0.79-2.47 2.61-3.14 4.91-4.16zm643 3.27q0 3.71 0 7.43c-3.23 0.15-6.28 1.64-10.11 1.04-7.58-1.19-12.6-4.85-14.41-11.59q0.3 0 0.6 0c4.61 4.94 15.73 3.34 23.92 3.12zm-153.33-2.68q0.3 0 0.6 0 0 0.08 0 0.15-2.01 2.75-4.01 5.5c-2.94 4.71-5.15 13.25-3.27 20.8 0.7 2.81 1.62 5.74 2.97 8.02 0.78 1.33 2.16 2.49 2.38 4.31-1.47 0.91-2.16 1.26-3.12 2.67-10.47 2.05-18.41-12.95-15.16-23.77 2.31-7.67 7.81-12.68 14.56-15.89q2.53-0.89 5.05-1.79zm12.04 0c8.41-0.12 15.01 2.96 16.34 9.81 1.32 6.79-8.4 13.25-0.3 17.53 1.45 0.77 3.99 1.64 6.54 1.19q2.01-0.52 4.01-1.04 0 0.37 0 0.74c-1.4 5.07-2.15 9.18-6.09 11.59-8.73 5.34-24.39 1.87-30.46-2.97-8.32-6.64-7.13-22.35-0.89-30.46 2.87-3.72 6.06-4.39 10.85-6.39zm-127.47 65.82q-1.64 0-3.27 0c-0.09-4.16-1.34-8.52-2.38-12.03-4.33-14.68-10.13-28.12-20.65-36.55-3.3-2.64-7.67-4.76-10.7-7.73q0.45-4.68 0.89-9.36c18.01 10.09 35.23 38.27 36.11 65.67zm213.34-63.74q3.71 0.82 7.43 1.64c7.41 2.92 12.81 8.78 15.45 16.49 0.68 1.99 2.12 13.78 1.48 13.96-4.26-1.15-9.57 0.29-14.26-0.59-9.26-1.73-14.76-7.06-17.97-14.86-1.52-3.68-3.14-11.7 0.29-14.7q0.08 0 0.15 0 0 0.37 0 0.74c0.78 4.82 4.9 13.54 9.36 14.56-0.9-5.05-2.34-10.34-2.38-16.94q0.23-0.15 0.45-0.3zm-533.95 1.04q0.22 0 0.44 0 2.46 7.21 4.91 14.42c0.69 2.91 0.06 7.61 1.48 9.95 2.1 3.44 6.22 7.17 9.36 9.66q1.93 1.48 3.86 2.97 0 0.07 0 0.15c-10.81-1.92-17.69-6.34-20.79-16.05-0.79-2.44-1.9-5.93-1.34-9.51q1.04-5.79 2.08-11.59zm99.54 0.15c8.25-0.16 10.44 4.24 14.86 7.73 2.86 2.26 6.16 4.73 9.65 6.24 5.23 2.26 10.55 3.13 13.67 7.43 1.19 1.63 5.04 9.18 3.86 12.18q-0.07 0-0.15 0c-0.3-2.83-1.83-5.07-3.12-6.98-2.11-3.17-4.26-6.07-8.32-7.28-5.33-1.59-11.13 0.52-15.3 1.48-5.11 1.19-11.03-0.76-14.26-2.67-4.16-2.46-11.68-8.8-6.69-15.16 1.42-1.79 3.5-1.97 5.8-2.97zm-355.23 0.45q0.3 0 0.6 0-0.15 0.22-0.3 0.44-1.78 2.6-3.56 5.2-2.53 5.06-5.06 10.11c-2.11 3.44-4.9 6.25-7.28 9.36 4.74-1.73 10.38-9.83 12.93-14.12 1.18-1.99 2.21-5.6 4.01-6.98-2.41 21.56-3.9 32.94-21.54 39.67q0-17.68 0-35.36c5.19-1.11 17.62-4.87 20.2-8.32zm316.16 1.34c2.52 2.57-1.12 10.94-1.94 12.48-2.39 4.49-6.5 7.87-11.29 9.95-6.48 2.81-13.91 3.58-17.53 9.21q-0.15-0.15-0.3-0.3c6.77-11.43 11.32-20.15 22.59-27.18q4.23-2.08 8.47-4.16zm-299.37 0.14c2.84 0.3 5.86 2.68 8.47 3.72 11.85 4.71 20.06 9.88 26.3 20.05 2.12 3.47 5.56 8.09 4.16 13.52-3.75 2.86-8.38-1.45-11.89-2.22 0.9 2.39 7.4 5.4 4.61 9.8-3.42 5.38-12.15-3.12-13.82-5.2-6.84-8.48-12.85-16.25-16.49-28.23-0.91-2.98-2.06-7.51-1.34-11.44zm-11.59 0.45q0.15 0 0.3 0c0.65 4.07-0.87 11.75-1.63 15.75-2.76 14.46-11.15 36.01-24.07 39.52q0-4.09 0-8.17c2.05-0.75 3.59-2.74 5.2-4.02 7.47-5.91 13.73-13.75 16.64-24.21 1.34-4.83 1.43-15.05 3.56-18.87zm6.54 0.45q0.15 0 0.3 0 4.23 10.32 8.47 20.65c3.24 7.35 7.74 14.35 12.48 20.35q3.41 3.49 6.83 6.98c-0.19 0.45 0 0.18-0.3 0.45-3.42 1.32-10.46-2.96-12.18-4.31-8.21-6.45-10.29-19.96-13.22-31.64-0.7-2.8-3.1-9.59-2.38-12.48zm482.25 1.04c14.14-0.18 20.17 13.39 16.79 27.63q-0.15 0.07-0.3 0.15-0.3-0.3-0.59-0.6-1.12-3.12-2.23-6.24c-1.85-3.99-5.12-8.13-8.47-10.69-2.35-1.81-5.1-3.43-7.87-4.76-1.27-0.6-2.83-0.82-3.72-1.78q0-0.22 0-0.45c2.05-1.48 3.76-2.05 6.39-3.26zm-481.51 58.68q-2.6 0-5.2 0-0.81-1.86-1.63-3.71-0.52-2.75-1.04-5.5-0.82 2.9-1.64 5.79c-0.57 1.37-3.08 2.78-3.12 3.42q-1.78 0-3.56 0c0.01-0.54-2.04-2.02-2.38-3.57-1.12-5.08 1.59-10.51 2.97-13.66 3.32-7.55 6.2-14.86 8.77-23.48 0.57-1.91 2.37-14.08 3.12-14.56 0.16 4.12 1.81 7.69 2.97 11 2.49 7.12 4.9 13.42 6.54 21.39 0.94 4.62 1.34 12.24-0.6 16.19q-0.37-0.14-0.74-0.29c-0.17-1.26-1.07-4.58-2.08-5.05 0.36 4.14-1.85 8.37-2.38 12.03zm832.58-18.42c-4.85 0.26-13.12-1.05-10.85-7.43 1.35-3.78 6.52-6.19 10.25-7.58q0-0.07 0-0.15c-3.2 0.52-7.45 3.18-10.99 0.89-10.89-7.03 3.43-20.01 11.59-20.94q0 17.6 0 35.21zm-409.75-33.88q0.81 0.23 1.63 0.45c-1.05 2.3-7.59 9.48-9.66 10.99-2.12 1.55-5.19 2.64-5.94 5.5q0.22 0 0.45 0 4.16-1.26 8.32-2.53c3.06-1.7 5.25-5.06 9.36-5.64q0.22 0.22 0.44 0.45 0.52 1.48 1.04 2.97c-1.92 2.47-6.24 2.32-7.87 5.2q0.44 0.44 0.89 0.89c3.9 1.92 8.27-2.47 11.44-0.75q0 0.08 0 0.15-0.08 0.3-0.15 0.6-4.23 1.48-8.47 2.97-5.5 3.27-10.99 6.54c-5.03 2.56-10.03 4.59-14.26 7.87-3.34 2.58-6.19 6.33-8.62 9.81-1 1.42-1.76 4.18-3.42 4.9q0.97-2.45 1.93-4.9c2.69-7.66 5.28-14.55 9.51-20.51 2.98-4.2 8.15-7.9 9.36-13.66q-0.3 0-0.59 0c-3.28 3.59-7.36 6.02-10.25 10.1-1.41 1.97-3.48 7.75-5.2 8.91q-0.08-0.15-0.15-0.3 1.26-4.38 2.52-8.76c3.52-8.7 8.99-15.06 17.53-18.72q3.49-1.04 6.99-2.08 2.08-0.22 4.16-0.45zm-340.97 2.23c8.59-0.2 14.75 3.32 17.53 8.92 1.34 2.68 1.91 8.05-0.59 9.95q-0.07 0-0.15 0c0.36-2.4 0.65-5.36-0.59-7.28-2.91-4.49-15.09-8.39-21.4-9.8q-0.07-0.15-0.14-0.3 0.14-0.22 0.29-0.45 2.53-0.52 5.05-1.04zm91.52 0c4.94-0.16 10.22 0.66 10.7 4.91-0.52 0.52-7.31 5.85-7.58 5.94 0.47-1.6 1.57-1.66 1.64-3.86-1.46-2.82-3.77-4.62-7.28-5.35-1.01-0.21-2.28 0.04-2.98-0.45q0.08-0.15 0.15-0.3 2.68-0.44 5.35-0.89zm295.35 1.19c14.34-0.17 26.66 11.17 27.49 23.92q-0.08 0.07-0.15 0.15c-4.92-0.27-8.15-4.4-13.07-4.9q-0.08 0.14-0.15 0.29c0.33 3.58 3 7.73 5.2 9.66q-0.08 0.15-0.15 0.3-0.08 0-0.15 0-3.42-0.89-6.83-1.79c-4.75-2.03-5.61-5.61-9.07-8.32q-2.6-1.41-5.2-2.82c-3.27-2.14-7.58-8.77-4.01-13.52 1.44-1.91 3.68-1.94 6.09-2.97zm47.55 0.6c1.15-0.03 1.73 0.18 2.37 0.59 4.25 13.01-4.08 19.32-13.07 22.73-5.62-4.35-4.22-15.91 0.74-19.76 1.6-1.24 3.76-2.41 5.94-2.97q2.01-0.3 4.02-0.59zm-199.68 2.22c1.02-0.04 2.06 0 2.67 0.3-0.72 8.03-6.44 12.48-13.96 13.82q-5.87 0.15-11.74 0.29-3.56 0.23-7.13 0.45-1.71 0.45-3.42 0.89 0.23-0.3 0.45-0.59c1.79-0.55 3.14-1.8 4.61-2.68q6.98-4.23 13.96-8.46c2.72-1.61 6.23-2.66 9.66-3.42q2.45-0.3 4.9-0.6zm-122.42 0.45c2.29-0.04 4.59-0.04 5.94 0.89 2.55 1.74 1.82 6.73-0.29 8.32-5.03 3.78-13.41 3.38-19.76 5.94-1.66 0.67-4.03 1.92-5.05 3.27q-0.67 1.26-1.34 2.53-0.15-0.15-0.3-0.3c1.87-9.75 6.49-15.65 14.56-19.02q3.12-0.81 6.24-1.63zm-116.48 4.75c17.69-0.36 16.3 18.41 11.3 30.61-1.1 2.67-2.28 7.04-4.61 8.47q0-0.15 0-0.3c-0.87-2.99 0-7.56-1.04-10.55-1.03-2.94-2.34-5.82-4.01-8.17-1.77-2.49-4.05-4.41-5.05-7.73-1.57-5.16-0.01-10.54 3.41-12.33zm545.1 40.86q-2.08-4.83-4.16-9.66c-3.89-9.04-5.52-20.89 2.23-26.89 3.31-2.57 6.9-2.87 12.18-3.71 14.84-2.38 27.94 10.07 31.05 20.2 1.9 6.19 0.06 10.32-0.3 15.9q0.3 0 0.6 0c1.51-2.05 3.11-4.08 4.45-6.39q0.67-1.63 1.34-3.27 0.15 0.15 0.3 0.3c-0.98 3.15-1.33 6.21-2.82 8.77q-1.56 2.37-3.12 4.75-14.04 0-28.08 0c-0.61-3.97-6.69-10.45-12.04-9.06q-0.37 0.44-0.74 0.89c0 4.74 3.87 5 5.05 8.17q-2.97 0-5.94 0zm-256.13-39.82c9.86-0.16 13.1 6.05 15.89 12.93 0.74 1.82 2.59 7.75 0.6 9.66q-0.08 0-0.15 0-0.07-0.15-0.15-0.3c2.67-7.75-6.06-17.85-12.03-18.87-4.74-0.81-6.82 1.87-9.81 2.67q-0.07-0.07-0.15-0.14c0.1-3.9 2.93-4.73 5.8-5.95zm166.54 0.75c10.42-0.14 15.28 8.25 13.08 19.61q-2.6 0-5.2 0c-11.71 0-13.67-6.25-23.33-8.17q-0.07-0.15-0.15-0.3c2.9-3.86 6.44-8.1 11.14-10.1q2.23-0.52 4.46-1.04zm-194.03 0.74c1.86 0.57 3.23 2.25 5.5 2.82 4.34 1.09 10.1-0.15 12.48 2.82q-0.15 0.23-0.3 0.45-3.93 1.86-7.87 3.71c-6.75 1.86-9.36-4.49-9.81-9.8zm-164.02 1.04q0.23 0 0.45 0c-3.08 7.36-22.35 6.92-31.35 8.91-12.87 2.85-22.64 6.54-31.2 13.37-2.91 2.33-4.49 6.08-7.28 8.47q-0.07 0-0.15 0c0.73-2.9 3.44-5.88 5.06-8.17 8.78-12.45 19.6-16.73 37.73-19.91 5.82-1.02 23.27-0.25 26.74-2.67zm40.41 1.78c13.36-0.19 24.45 11.04 20.06 25.41-0.74 2.41-1.92 4.79-3.27 6.68-0.74 1.04-2.9 2.36-2.97 3.42q-8.02-0.07-16.04-0.15 0-0.15 0-0.3c6.66-7.26 10.33-23.76-2.38-27.63-6.95-2.12-15.89 1.41-23.18-0.45q-0.07-0.14-0.15-0.29 0.15-0.15 0.3-0.3c3.61 0.83 15.3-3.83 18.87-4.9q4.38-0.75 8.76-1.49zm388.51 1.78q0.22 0 0.44 0c-0.57 2.34-6.12 7.1-8.02 8.62q-2.23 2.23-4.46 4.46c-4.58 3.67-9.28 7.42-12.77 12.18q-2.31 3.49-4.61 6.98-0.22 0.75-0.44 1.49-1.94 0-3.87 0c2.57-9.71 18.86-22.96 26.45-28.67q3.64-2.53 7.28-5.06zm-143.37 3.57q0.15 0 0.3 0 1.19 2.45 2.38 4.9c2.32 3.94 5.73 7.49 10.1 9.36 2.54 1.09 5.28 1.44 8.47 1.93 1.93 0.31 5.38-0.59 6.53 0.15q-0.22 0.15-0.44 0.3c-11.53 5.63-29.71-4.72-27.34-16.64zm-176.5 1.19c12.15-0.2 17.52 6.13 20.06 15.45 0.9 3.29 0.65 11.6-1.34 13.52q-8.47 0-16.93 0c-0.97-5.68-3.18-10.51-6.1-14.26-1.37-1.77-5.37-4.72-4.45-8.32 1.11-4.4 4.9-4.63 8.76-6.39zm-78.89 1.19q0.97 0.07 1.93 0.15c4 2.08 6.51 17.52 3.42 22.73-1.46 2.46-3.9 2.83-5.79 4.75q0.15 0.08 0.29 0.15-2.3-0.07-4.6-0.15c0.43-0.08 0.73 0.12 0.44-0.3-6.38-0.47-10.9-10.51-8.02-17.82 1.49-3.78 4.3-6.94 8.02-8.47q2.16-0.52 4.31-1.04zm544.21 1.78c2.77-0.08 4.11 0.61 5.64 1.63 4.78 3.2 3.34 6.33 1.34 11.15q-0.67 1.93-1.34 3.86-0.07 0-0.15 0-0.07-0.22-0.15-0.45c0.3-0.62 0.1-2.66-0.14-3.56-0.62-0.46-0.76-0.77-1.79-0.89q-0.29 0.37-0.59 0.74 0 2.08 0 4.16-0.22-0.15-0.45-0.3-0.15-1.85-0.29-3.71-0.45-0.37-0.9-0.74-0.14 0.07-0.29 0.14 0.07 1.86 0.15 3.72-0.3-0.22-0.6-0.45c-2.06-4.79-7.82-10.63-0.44-15.3zm-237.12 0.45c7.14-0.17 12.02 2.86 14.41 7.42 2.2 4.2 0.62 9.82-2.52 11.74-5.63 3.45-11.63-0.92-13.37-5.2-0.97-2.37-0.72-5.06-1.19-8.02-0.27-1.66-1.03-4-0.6-5.65q1.64-0.15 3.27-0.29zm-12.63 0.59c11.64 1.17 6.68 17.77-3.41 15.15-7.22-1.87-5.95-10.17-1.19-13.66 1.34-0.98 2.78-0.83 4.6-1.49zm251.53 0.3c-0.2 0.76-0.26 2.79-0.15 3.27q0.15 0.22 0.3 0.44 0.29 0 0.59 0c0.64-0.61 0.96-1.01 1.34-1.93-0.4-0.69-1.27-1.52-2.08-1.78zm-484.63 0.29c10.4-0.34 10.83 12.37 1.64 13.82-4.23 0.67-8.49-4.04-7.28-8.47 0.8-2.97 3.1-4.05 5.64-5.35zm-122.27 24.37q-2.97 0-5.94 0c-1.18-4.94-7.92-10.76-4.46-17.09 0.69-1.26 1.9-2.59 3.42-2.97 9.87-2.46 7.5 13.79 6.98 20.06zm10.1 0c-3.07 0.02-4.92 0-7.13 0 0.35-5.54 5.16-21.59 12.18-18.72 8.51 3.48-4.52 15.49-5.05 18.72zm522.22-18.87q8.84 3.27 17.68 6.54c0.88 0.66 1.45 1.9 1.48 3.42q-0.29 0.44-0.59 0.89c-6.44 1.9-16.11-6.83-18.72-10.55q0.07-0.15 0.15-0.3zm62.25 0.89c5.33-0.09 10.8 4.88 9.8 10.4q-0.67 0.6-1.33 1.19 0.29 1.26 0.59 2.53-0.07 0.15-0.15 0.29-0.3-0.14-0.59-0.29c-1.38-0.64-1.84-1.22-4.16-1.19q0 0.22 0 0.44c1.27 0.49 3.94 2.19 4.45 3.42-4.15-0.55-15.53-5.66-13.22-11.14 0.34-0.65 1.22-0.76 1.49-1.34 1.6-3.49-0.74-2.29 3.12-4.31zm1.19 2.08q-0.38 0.37-0.75 0.75c-0.05 1.3 0.13 2.32 0.89 2.82 0.86 0.18 2.03-1.19 2.68-1.78q0.22 0.07 0.44 0.14c2.76 0.99 1.65 3.14 2.08 5.95 4.47 3.64 1.31-8.22-5.34-7.88zm-391.33 15.9q-4.01 0-8.02 0c-0.13-5.64-2.62-13.76 3.27-15.01 4.43-0.93 6.83 5.82 6.09 10.11q-0.67 2.45-1.34 4.9zm416.29-14.41c3.13-0.07 5.14 0.34 5.64 2.82q0 1.12 0 2.23c0.76 1.19 2.97 1.31 1.93 4.01-0.62 1.63-4.1 4.86-4.16 5.35q-3.19 0-6.39 0c-0.25-2.08-1.73-8.37-3.41-9.21-0.93-0.25-1.4 0.09-2.23 0.3q-0.08-0.15-0.15-0.3 0.22-0.3 0.45-0.6c0.58-0.2 2.58-0.18 3.26-0.59q1.04-1.34 2.08-2.67 1.49-0.67 2.98-1.34zm-224.04 1.34q0.44 0.22 0.89 0.44c0.69 3.55 1.78 10.06-0.89 12.63q-6.47 0-12.93 0-0.15-0.3-0.3-0.59c2.77-0.99 4.94-5.26 6.69-7.43 1.72-2.15 4.21-3.49 6.54-5.05zm291.49 8.32c-2.07 0.11-4.58 0.9-7.14 0.44q-3.19-0.59-6.38-1.19-0.08 0.08-0.15 0.15 0.22 2.68 0.44 5.35-2 0-4.01 0 0-0.22 0-0.45 1.78-2.74 3.57-5.49 2.82-1.04 5.64-2.08 4.01-2.38 8.03-4.76 0 4.01 0 8.03zm-24.07 4.75q-9.21 0-18.43 0c1.48-4.85 10.38-11.05 15.9-12.18 2.7-0.55 5.8 0.11 8.02 0.44q1.94-0.29 3.87-0.59 0.07 0.07 0.15 0.15-0.15 0.22-0.3 0.44c-4.53 1.06-8.94 6.53-9.21 11.74zm-638.25-11.44c4.28-0.07 6.26 3.58 3.86 6.83-1.06 1.44-5.24 3.24-5.49 4.61q-5.5 0-11 0 0-0.22 0-0.45c3.5-4.77 7-8.24 12.63-10.99zm339.92 11.44q-7.94-0.07-15.89-0.15 0-0.15 0-0.3 3.86-3.12 7.72-6.24 1.64-2 3.27-4.01 0.3 0 0.6 0c1.61 3.17 4.09 6.31 4.3 10.7zm-249.89 0q-3.27 0-6.53 0c-0.01-3.88 1.67-7.83 3.26-10.4 0.67 0.11 0.63 0.19 1.04 0.45 0.8 3.12 2.06 6.3 2.23 9.95zm20.65 0q-1.93 0-3.86 0c0.04-4.1-1.1-6.7-1.19-10.4q0.3 0.15 0.6 0.3c2.92 1.38 4.49 5.73 4.45 10.1zm-13.07 0q-1.11 0-2.23 0 0.89-4.9 1.78-9.81 0.3 0 0.6 0-0.08 4.91-0.15 9.81zm193.44 0c-0.97-11.22 7.12-9.44 15.89-8.02 3.65 0.59 7.14-0.47 9.96-0.89q0.07 0.14 0.14 0.29c-0.91 2.25-5.32 7.54-5.49 8.62q-10.25 0-20.5 0zm-96.43 0q-1.04 0-2.08 0c0.17-1.3 1.52-8.44 2.23-8.77q-0.07 4.39-0.15 8.77zm376.77-8.77q0.22 0.23 0.45 0.45 0.07-0.07 0.15-0.15 0-0.07 0-0.15-0.3-0.07-0.6-0.15zm23.48 0.3c-0.08 0.77 0.31 0.9 0.44 1.93q-0.67 0.45-1.34 0.89 0 0.15 0 0.3c0.57 0.32 0.61 0.39 1.34 0.3 0.48-0.96 0.49-2.16 0.15-3.27q-0.3-0.07-0.59-0.15zm-5.06 8.47q-5.64 0-11.29 0c-1.08-9.57 11.9-11.03 11.29 0zm4.02-7.13q-0.45 0.52-0.9 1.04 0.23 0 0.45 0 0.22-0.52 0.45-1.04zm-434.12 7.13q-4.38 0-8.76 0c-0.37-8.76 8.69-8.6 8.76 0zm84.98-6.83c1.31-0.09 2.76-0.2 3.12 0.74-7.65 0.12-9.24 6.09-19.31 6.09-1.36 0-3.27 0.19-4.16-0.3q0.07-0.15 0.15-0.29c3.85-1.02 7.3-3.65 11.44-4.91 2.57-0.78 6.06-0.24 8.76-1.33zm-294.76 1.48q0.15 0 0.3 0c-0.81 2.34-4.25 2.93-5.2 5.35q-0.67 0-1.34 0-0.07-0.22-0.14-0.45 0-0.07 0-0.14 3.19-2.38 6.38-4.76zm617 4.01c2.76-0.05 4.85 0.25 6.84 0.75q0.07 0.14 0.15 0.29-0.08 0.15-0.15 0.3-5.05-0.07-10.1-0.15 0-0.07 0-0.15 0.07-0.15 0.14-0.29 1.56-0.38 3.12-0.75z"/>
		</g>
	</g>
</svg>